<svg width="214" height="214" viewBox="0 0 214 214" fill="none" xmlns="http://www.w3.org/2000/svg">
<g clip-path="url(#clip0)">
<path d="M210.431 95.2676C210.457 115.478 194.12 131.895 173.909 131.968H40.0897C25.2922 131.898 11.9842 122.947 6.34089 109.267C0.697551 95.5877 3.82308 79.8569 14.2676 69.3739C21.0745 62.4546 30.3834 58.5717 40.0897 58.6026H40.4467C40.2013 56.5671 40.0818 54.5183 40.0897 52.4682C40.0183 27.6274 58.636 6.70498 83.3171 3.89084C85.1161 3.67642 86.9267 3.569 88.7385 3.56984C103.526 3.55312 117.509 10.3078 126.687 21.9021C127.044 22.3301 127.401 22.7936 127.757 23.2576C129.171 22.8313 130.613 22.5094 132.073 22.2946C133.845 22.0371 135.632 21.9059 137.423 21.9021C157.631 21.9652 173.965 38.3941 173.909 58.6022C194.112 58.6582 210.454 75.0641 210.431 95.2676Z" fill="#EDF3E2"/>
<path d="M199.732 95.2676C199.757 115.478 183.42 131.895 163.21 131.968H40.0897C25.2922 131.898 11.9842 122.947 6.34089 109.267C0.697551 95.5878 3.82308 79.8569 14.2676 69.3739C21.0745 62.4546 30.3834 58.5717 40.0897 58.6026H40.4467C40.2013 56.5671 40.0818 54.5183 40.0897 52.4682C40.0183 27.6274 58.636 6.70499 83.3171 3.89084C96.781 5.33323 109.021 12.3592 117.058 23.2576C120.184 22.3364 123.429 21.8796 126.687 21.9021H126.723C128.514 21.9059 130.301 22.0371 132.073 22.2946C150.01 25.0189 163.252 40.4601 163.21 58.6026C183.413 58.6586 199.755 75.0641 199.732 95.2676Z" fill="#EDF3E2"/>
<path d="M94.3027 94.3757L99.8667 74.9019H107H114.133L119.697 94.3757H94.3027Z" fill="#EDF3E2"/>
<path d="M119.697 190.96L114.133 210.434H107H99.8667L94.3027 190.96H119.697Z" fill="#EDF3E2"/>
<path d="M63.8716 117.498L54.0386 99.7937L59.0817 94.7502L64.1249 89.707L81.8298 99.5405L63.8716 117.498Z" fill="#EDF3E2"/>
<path d="M150.126 167.837L159.96 185.542L154.917 190.585L149.873 195.628L132.168 185.795L150.126 167.837Z" fill="#EDF3E2"/>
<path d="M58.7071 155.365L39.2334 149.801V142.668V135.535L58.7071 129.971V155.365Z" fill="#EDF3E2"/>
<path d="M155.292 129.971L174.766 135.535V142.668V149.801L155.292 155.365V129.971Z" fill="#EDF3E2"/>
<path d="M81.8298 185.795L64.1249 195.628L59.0817 190.585L54.0386 185.542L63.8716 167.837L81.8298 185.795Z" fill="#EDF3E2"/>
<path d="M132.168 99.5405L149.873 89.707L154.917 94.7502L159.96 99.7937L150.126 117.498L132.168 99.5405Z" fill="#EDF3E2"/>
<path d="M106.999 192.601C134.576 192.601 156.932 170.245 156.932 142.668C156.932 115.091 134.576 92.7352 106.999 92.7352C79.4221 92.7352 57.0664 115.091 57.0664 142.668C57.0664 170.245 79.4221 192.601 106.999 192.601Z" fill="#EDF3E2"/>
<path d="M107 178.334C126.698 178.334 142.666 162.366 142.666 142.668C142.666 122.97 126.698 107.002 107 107.002C87.302 107.002 71.3337 122.97 71.3337 142.668C71.3337 162.366 87.302 178.334 107 178.334Z" fill="#EDF3E2"/>
<path d="M106.999 153.368C112.908 153.368 117.699 148.577 117.699 142.668C117.699 136.759 112.908 131.968 106.999 131.968C101.09 131.968 96.2991 136.759 96.2991 142.668C96.2991 148.577 101.09 153.368 106.999 153.368Z" fill="#EDF3E2"/>
<path d="M140.722 22.0697C141.059 22.1002 141.394 22.1412 141.729 22.1805C141.394 22.1403 141.06 22.1002 140.722 22.0697Z" fill="white"/>
<path d="M50.7898 131.968C35.9923 131.898 22.6843 122.947 17.041 109.267C11.3976 95.5877 14.5232 79.8569 24.9676 69.3739C31.7746 62.4546 41.0835 58.5717 50.7898 58.6026H51.1468C50.9014 56.5671 50.7819 54.5183 50.7898 52.4682C50.7183 27.6274 69.3361 6.70498 94.0172 3.89084C94.059 3.88582 94.1025 3.88833 94.1447 3.88331C92.35 3.67893 90.5452 3.57444 88.7388 3.56984C86.9269 3.56901 85.1167 3.67642 83.3174 3.89084C58.6362 6.70498 40.0185 27.6274 40.09 52.4682C40.082 54.5183 40.2016 56.5671 40.4469 58.6026H40.09C19.8936 58.6753 3.56167 75.0712 3.56794 95.2676C3.52949 115.483 19.8748 131.908 40.09 131.968H50.7898Z" fill="white"/>
<path d="M177.307 55.2012C175.585 34.4251 158.257 18.418 137.41 18.3448C134.609 18.3653 131.819 18.6938 129.09 19.3245C115.161 2.11407 91.8761 -4.41158 71.0323 3.05324C50.1885 10.5181 36.3397 30.342 36.5031 52.482C36.5031 53.409 36.6206 54.3018 36.6657 55.2075C35.0954 55.3312 33.5343 55.5473 31.9891 55.8537C19.0724 58.583 8.30526 67.453 3.15303 79.6078C2.12359 82.0416 1.34033 84.5723 0.8162 87.1624C0.273266 89.8299 -8.17833e-05 92.5454 0.000754143 95.2676C-0.0159644 111.423 9.61975 126.026 24.4796 132.365C26.2902 133.13 28.3784 132.286 29.1482 130.477C29.9181 128.669 29.0793 126.578 27.2728 125.803C15.0424 120.586 7.11407 108.564 7.13413 95.2676C7.13288 93.024 7.35816 90.7858 7.80621 88.5873C8.23463 86.4615 8.87662 84.3847 9.72174 82.3876C11.3815 78.4533 13.7952 74.8823 16.8271 71.8759C18.3067 70.3691 19.9305 69.0111 21.6755 67.8216C23.4297 66.625 25.2959 65.6018 27.2482 64.7671C29.2398 63.9249 31.3095 63.2796 33.4269 62.8412C35.7061 62.3806 38.0262 62.1553 40.3513 62.1691H40.4383L40.4642 62.1636C40.5975 62.1632 40.7304 62.1557 40.8629 62.1411C41.0247 62.1005 41.1835 62.0479 41.3373 61.9839C41.5488 61.9367 41.7548 61.8682 41.9525 61.78C42.2765 61.6186 42.5732 61.4076 42.8315 61.1543L42.8821 61.1108C43.6888 60.3572 44.0942 59.268 43.9767 58.1704C43.7473 56.2833 43.6332 54.3837 43.6353 52.4828C43.4986 33.8893 54.8082 17.1248 72.1002 10.289C89.3922 3.45323 109.108 7.95302 121.722 21.6141C106.934 27.9617 97.3456 42.5056 97.3402 58.5988C97.3402 60.5687 98.9372 62.1653 100.907 62.1653C102.876 62.1653 104.473 60.5687 104.473 58.5988C104.46 43.7089 114.395 30.6442 128.746 26.6769C131.562 25.8652 134.479 25.4615 137.409 25.4786C155.641 25.5509 170.374 40.3669 170.344 58.5988L170.345 58.6005L170.344 58.6022C170.344 59.5485 170.719 60.4559 171.388 61.1246C172.057 61.7938 172.965 62.1691 173.911 62.1687C192.14 62.2339 206.879 77.0385 206.864 95.268C206.876 99.7034 205.995 104.096 204.272 108.183C200.895 116.079 194.624 122.384 186.746 125.804C185.57 126.3 184.75 127.387 184.594 128.654C184.439 129.921 184.972 131.174 185.993 131.94C187.014 132.706 188.366 132.868 189.539 132.365C199.121 128.219 206.747 120.556 210.848 110.955C217.184 95.8619 213.785 78.4375 202.241 66.8319C195.582 60.1077 186.739 55.9832 177.307 55.2012Z" fill="#7FAF1B"/>
<path d="M107 103.435C85.3319 103.435 67.7666 121 67.7666 142.668C67.7666 164.336 85.3319 181.901 107 181.901C128.667 181.901 146.232 164.336 146.232 142.668C146.208 121.01 128.657 103.46 107 103.435ZM107 174.767C89.2716 174.767 74.9 160.396 74.9 142.668C74.9 124.94 89.2716 110.568 107 110.568C124.727 110.568 139.099 124.94 139.099 142.668C139.08 160.388 124.72 174.748 107 174.767Z" fill="#7FAF1B"/>
<path d="M175.744 132.104L158.169 127.084C157.158 123.775 155.827 120.572 154.194 117.521L163.079 101.527C163.852 100.135 163.609 98.3998 162.484 97.2738L152.393 87.1834C151.269 86.0561 149.532 85.8129 148.141 86.5878L132.146 95.4736C129.095 93.8402 125.892 92.5086 122.583 91.4984L117.563 73.9235C117.125 72.3921 115.726 71.3363 114.133 71.3354H99.8664C98.2735 71.3359 96.8737 72.3916 96.4357 73.9235L91.416 91.4984C88.1065 92.509 84.9037 93.8402 81.853 95.4736L65.8584 86.5878C64.467 85.8133 62.7308 86.0565 61.6056 87.1834L51.5151 97.2738C50.39 98.3998 50.1467 100.135 50.9195 101.527L59.8054 117.521C58.172 120.572 56.8404 123.775 55.8302 127.084L38.2553 132.104C36.7238 132.542 35.6681 133.942 35.6672 135.535V149.801C35.6677 151.394 36.7234 152.794 38.2553 153.232L55.8302 158.251C56.8408 161.561 58.172 164.764 59.8054 167.814L50.9195 183.809C50.1467 185.201 50.39 186.936 51.5151 188.062L61.6056 198.152C62.7308 199.279 64.467 199.522 65.8584 198.748L81.853 189.862C84.9037 191.495 88.1065 192.827 91.416 193.837L96.4357 211.412C96.8737 212.943 98.2735 213.999 99.8664 214H114.133C115.726 214 117.125 212.944 117.563 211.412L122.583 193.837C125.892 192.826 129.095 191.495 132.146 189.862L148.141 198.748C149.532 199.522 151.268 199.279 152.393 198.152L162.484 188.062C163.609 186.936 163.852 185.201 163.079 183.809L154.194 167.814C155.827 164.764 157.159 161.561 158.169 158.251L175.744 153.232C177.275 152.794 178.331 151.394 178.332 149.801V135.535C178.331 133.942 177.275 132.542 175.744 132.104ZM106.999 189.034C81.392 189.034 60.6334 168.275 60.6334 142.668C60.6334 117.061 81.3924 96.3021 106.999 96.3021C132.606 96.3021 153.365 117.061 153.365 142.668C153.336 168.263 132.595 189.004 106.999 189.034ZM149.252 94.1282L155.539 100.415L149.813 110.722C146.729 106.599 143.069 102.939 138.946 99.8547L149.252 94.1282ZM102.555 78.4688H111.444L114.674 89.7839C109.591 88.9635 104.408 88.9635 99.3247 89.7839L102.555 78.4688ZM58.46 100.415L64.747 94.1282L75.0536 99.8543C70.9304 102.938 67.2707 106.598 64.1865 110.721L58.46 100.415ZM42.8002 147.112V138.223L54.1153 134.993C53.2948 140.077 53.2948 145.259 54.1153 150.343L42.8002 147.112ZM64.747 191.207L58.46 184.92L64.1861 174.614C67.2703 178.737 70.9299 182.397 75.0531 185.481L64.747 191.207ZM111.444 206.867H102.555L99.3247 195.552C104.408 196.372 109.591 196.372 114.674 195.552L111.444 206.867ZM155.539 184.92L149.252 191.207L138.945 185.481C143.069 182.397 146.728 178.737 149.813 174.614L155.539 184.92ZM171.198 147.112L159.883 150.343C160.704 145.259 160.704 140.077 159.883 134.993L171.198 138.223V147.112Z" fill="#7FAF1B"/>
<path d="M106.999 128.401C99.1202 128.401 92.7329 134.788 92.7329 142.667C92.7329 150.546 99.1202 156.934 106.999 156.934C114.878 156.934 121.266 150.546 121.266 142.667C121.258 134.792 114.875 128.409 106.999 128.401ZM106.999 149.801C103.06 149.801 99.8659 146.607 99.8659 142.667C99.8659 138.728 103.06 135.534 106.999 135.534C110.939 135.534 114.133 138.728 114.133 142.667C114.128 146.605 110.937 149.796 106.999 149.801Z" fill="#7FAF1B"/>
</g>
<defs>
<clipPath id="clip0">
<rect width="214" height="214" fill="white"/>
</clipPath>
</defs>
</svg>
