<svg width="88" height="88" viewBox="0 0 88 88" fill="none" xmlns="http://www.w3.org/2000/svg">
<g clip-path="url(#clip0)">
<path d="M86.6251 34.0773V79.8557C86.6251 83.6421 83.5572 86.7101 79.7727 86.7101H23.4669C20.2322 86.7101 17.5218 84.4688 16.8016 81.4541L16.7741 77.5354L16.6143 54.1985V8.14325C16.6143 4.35685 19.6822 1.28888 23.4669 1.28888H53.8369C56.5663 1.28888 65.4056 8.82543 73.2189 16.7626C80.3483 24.0071 86.6251 31.5851 86.6251 34.0773Z" fill="white"/>
<path d="M86.6253 34.0773V50.847C86.6253 50.8281 86.6235 50.8092 86.6235 50.7885C86.1079 30.2118 69.3468 29.2596 63.8657 23.7787L73.2192 16.7628C80.3484 24.0071 86.6253 31.5851 86.6253 34.0773Z" fill="white"/>
<path d="M53.8361 1.28906H37.0664C37.0853 1.28906 37.1042 1.29078 37.1248 1.29078C57.7015 1.80641 58.6537 18.5675 64.1347 24.0486L71.1506 14.6953C63.9061 7.56577 56.3283 1.28906 53.8361 1.28906Z" fill="white"/>
<path d="M86.6253 34.0782V36.9774C86.6253 30.8736 81.6757 25.9239 75.5719 25.9239H68.8443C65.0598 25.9239 61.9905 22.8546 61.9905 19.07V12.3425C61.9905 6.23872 57.0408 1.28906 50.937 1.28906H53.8362C59.0566 1.28906 64.0648 3.36325 67.756 7.05444L80.8599 20.1584C84.5511 23.8497 86.6253 28.8578 86.6253 34.0782Z" fill="white"/>
<path d="M22.6874 86.7099C34.4571 86.7099 43.9984 77.1687 43.9984 65.399C43.9984 53.6293 34.4571 44.088 22.6874 44.088C10.9177 44.088 1.37646 53.6293 1.37646 65.399C1.37646 77.1687 10.9177 86.7099 22.6874 86.7099Z" fill="white"/>
<path d="M13.2977 80.4682C16.7348 83.9054 21.0545 85.9225 25.5259 86.5198C19.1696 87.3707 12.5031 85.3534 7.61787 80.4682C-0.704656 72.1457 -0.704656 58.6526 7.61787 50.3301C12.5032 45.4447 19.1696 43.4276 25.5259 44.2786C21.0545 44.8758 16.7348 46.893 13.2977 50.3301C4.97529 58.6526 4.97529 72.1457 13.2977 80.4682Z" fill="white"/>
<path d="M53.771 59.328H47.9414C47.2293 59.328 46.6523 59.9052 46.6523 60.6171C46.6523 61.329 47.2293 61.9061 47.9414 61.9061H53.7712C54.4833 61.9061 55.0603 61.329 55.0603 60.6171C55.0601 59.905 54.4831 59.328 53.771 59.328Z" fill="black"/>
<path d="M31.8712 54.6856C31.2357 54.3647 30.4602 54.62 30.1395 55.2556L20.4643 74.4236L12.8274 66.7868C12.324 66.2834 11.5078 66.2834 11.0045 66.7868C10.5011 67.2902 10.5011 68.1065 11.0045 68.6097L19.9009 77.5061C20.1445 77.7497 20.4733 77.8838 20.8124 77.8838C20.8803 77.8838 20.9485 77.8784 21.0166 77.8674C21.4248 77.8019 21.777 77.5446 21.9633 77.1755L32.4413 56.4173C32.762 55.7817 32.5068 55.0064 31.8712 54.6856Z" fill="#008751"/>
<path d="M74.9001 52.471H46.0552C45.3431 52.471 44.7661 53.0482 44.7661 53.7601C44.7661 54.472 45.3431 55.0492 46.0552 55.0492H74.9001C75.6122 55.0492 76.1892 54.472 76.1892 53.7601C76.1892 53.0482 75.6122 52.471 74.9001 52.471Z" fill="black"/>
<path d="M74.9002 45.6142H41.5972C40.8853 45.6142 40.3081 46.1914 40.3081 46.9033C40.3081 47.6152 40.8853 48.1924 41.5972 48.1924H74.9002C75.6123 48.1924 76.1892 47.6152 76.1892 46.9033C76.1892 46.1914 75.6123 45.6142 74.9002 45.6142Z" fill="black"/>
<path d="M74.9 38.7573H28.0322C27.3203 38.7573 26.7432 39.3344 26.7432 40.0464C26.7432 40.7583 27.3203 41.3354 28.0322 41.3354H74.9001C75.6122 41.3354 76.1892 40.7583 76.1892 40.0464C76.1892 39.3344 75.612 38.7573 74.9 38.7573Z" fill="black"/>
<path d="M28.0322 22.3171H45.249C45.961 22.3171 46.538 21.7399 46.538 21.028C46.538 20.3161 45.961 19.739 45.249 19.739H28.0322C27.3203 19.739 26.7432 20.3161 26.7432 21.028C26.7432 21.7399 27.3203 22.3171 28.0322 22.3171Z" fill="#008751"/>
<path d="M87.914 34.079C87.914 28.4747 85.7321 23.2074 81.7702 19.2478L68.6666 6.1423C64.7059 2.18127 59.4385 0 53.8352 0H23.4652C18.9758 0 15.3235 3.65303 15.3235 8.14327V44.0352C12.1735 45.1155 9.21608 46.909 6.70705 49.418C2.43768 53.6864 0.0864258 59.3617 0.0864258 65.3984C0.0864258 71.4352 2.43768 77.1105 6.70688 81.3789C10.5986 85.2715 15.7637 87.6068 21.2504 87.9545C21.7305 87.9849 22.2093 88 22.6876 88C22.848 88 79.7706 87.999 79.7706 87.999C84.26 87.999 87.9123 84.3459 87.9123 79.8557L87.914 34.079ZM79.7708 85.4208H33.1768C34.2895 84.8378 35.3578 84.1612 36.3672 83.3917C36.9333 82.9601 37.0425 82.1513 36.6107 81.5851C36.179 81.0188 35.3701 80.91 34.8041 81.3416C26.8814 87.3811 15.5861 86.6137 8.52996 79.556C4.74768 75.7744 2.66472 70.7465 2.66472 65.3984C2.66472 60.0504 4.74768 55.0225 8.53013 51.2409C16.3365 43.4345 29.0386 43.4344 36.8452 51.2409C43.9011 58.2971 44.668 69.5917 38.629 77.5134C38.1975 78.0795 38.3064 78.8884 38.8726 79.32C39.4386 79.7515 40.2478 79.6424 40.6792 79.0764C43.9658 74.7653 45.586 69.3968 45.2416 63.96C44.8939 58.4736 42.5593 53.3091 38.6681 49.418C33.0404 43.7903 25.1585 41.7575 17.9018 43.3183V8.14327C17.9018 5.07461 20.3976 2.57795 23.4654 2.57795H50.9375C55.3535 2.57795 59.2326 5.55448 60.3705 9.81647C60.5543 10.5043 61.2617 10.9129 61.9485 10.7293C62.6364 10.5456 63.0451 9.83916 62.8614 9.15131C62.2681 6.92983 61.0855 4.98438 59.5098 3.465C62.2459 4.34827 64.7523 5.87383 66.8434 7.96503L79.9473 21.0707C82.0412 23.1638 83.5685 25.6733 84.4514 28.413C82.2054 26.0848 79.0547 24.6345 75.5719 24.6345H68.843C65.7753 24.6345 63.2794 22.138 63.2794 19.0692V15.2261C63.2794 14.5142 62.7024 13.937 61.9903 13.937C61.2782 13.937 60.7012 14.5142 60.7012 15.2261V19.0692C60.7012 23.5594 64.3536 27.2125 68.843 27.2125H75.5719C80.9337 27.2125 85.2983 31.5569 85.3342 36.9103V79.8554C85.3344 82.9244 82.8384 85.4208 79.7708 85.4208Z" fill="#111704"/>
</g>
<defs>
<clipPath id="clip0">
<rect width="88" height="88" fill="white"/>
</clipPath>
</defs>
</svg>
