<svg width="88" height="88" viewBox="0 0 88 88" fill="none" xmlns="http://www.w3.org/2000/svg">
<path d="M67.8696 86.7101H20.1314C14.6951 86.7101 10.2881 82.303 10.2881 76.8668V18.1464C10.2881 12.7101 14.6951 8.3031 20.1314 8.3031H67.8696C73.3059 8.3031 77.7129 12.7101 77.7129 18.1464V76.8668C77.7129 82.303 73.3059 86.7101 67.8696 86.7101Z" fill="white"/>
<path d="M23.4403 86.7109H20.1305C14.6941 86.7109 10.2881 82.3032 10.2881 76.8666V18.1457C10.2881 12.711 14.6941 8.30328 20.1305 8.30328H23.4403C18.0039 8.30328 13.596 12.711 13.596 18.1457V76.8666C13.596 82.303 18.0037 86.7109 23.4403 86.7109Z" fill="white"/>
<path d="M65.8285 77.7712H22.173C19.9819 77.7712 18.2056 75.9949 18.2056 73.8038V21.2094C18.2056 19.0183 19.9819 17.242 22.173 17.242H65.8285C68.0196 17.242 69.7959 19.0183 69.7959 21.2094V73.8038C69.7957 75.9949 68.0196 77.7712 65.8285 77.7712Z" fill="white"/>
<path d="M56.8514 1.28906H31.1497C27.6682 1.28906 24.8457 4.11142 24.8457 7.59309V15.28C24.8457 18.7615 27.6681 21.5841 31.1497 21.5841H56.8514C60.3329 21.5841 63.1553 18.7617 63.1553 15.28V7.59309C63.1554 4.11142 60.3331 1.28906 56.8514 1.28906Z" fill="white"/>
<path d="M36.1112 21.5834H31.1492C27.667 21.5834 24.8457 18.762 24.8457 15.2798V7.59239C24.8457 4.11193 27.667 1.28888 31.1492 1.28888H36.1112C32.631 1.28888 29.8077 4.11193 29.8077 7.59239V15.2798C29.8077 18.762 32.6308 21.5834 36.1112 21.5834Z" fill="white"/>
<path d="M52.2796 15.5777C54.6289 15.5777 56.5334 13.6732 56.5334 11.3239C56.5334 8.97465 54.6289 7.07019 52.2796 7.07019C49.9303 7.07019 48.0259 8.97465 48.0259 11.3239C48.0259 13.6732 49.9303 15.5777 52.2796 15.5777Z" fill="#008751"/>
<path d="M35.7215 15.5777C38.0708 15.5777 39.9752 13.6732 39.9752 11.3239C39.9752 8.97465 38.0708 7.07019 35.7215 7.07019C33.3722 7.07019 31.4678 8.97465 31.4678 11.3239C31.4678 13.6732 33.3722 15.5777 35.7215 15.5777Z" fill="#008751"/>
<path d="M52.2796 16.8669C55.3359 16.8669 57.8224 14.3804 57.8224 11.3241C57.8224 8.26783 55.3359 5.78131 52.2796 5.78131C49.2233 5.78131 46.7368 8.26783 46.7368 11.3241C46.7368 14.3804 49.2232 16.8669 52.2796 16.8669ZM52.2796 8.35926C53.9143 8.35926 55.2443 9.68923 55.2443 11.3239C55.2443 12.9586 53.9143 14.2886 52.2796 14.2886C50.6449 14.2886 49.3149 12.9586 49.3149 11.3239C49.3149 9.68923 50.6447 8.35926 52.2796 8.35926Z" fill="#111704"/>
<path d="M30.1787 11.324C30.1787 14.3803 32.6652 16.8668 35.7215 16.8668C38.7778 16.8668 41.2643 14.3803 41.2643 11.324C41.2643 8.2677 38.7778 5.78119 35.7215 5.78119C32.6652 5.78119 30.1787 8.2677 30.1787 11.324ZM38.6862 11.324C38.6862 12.9587 37.3562 14.2887 35.7215 14.2887C34.0868 14.2887 32.7568 12.9587 32.7568 11.324C32.7568 9.68928 34.0868 8.35931 35.7215 8.35931C37.3562 8.35931 38.6862 9.68928 38.6862 11.324Z" fill="#111704"/>
<path d="M67.8693 7.01422H64.4202C64.1231 3.09702 60.8433 0 56.8513 0H50.6227C49.9108 0 49.3336 0.577156 49.3336 1.28906C49.3336 2.00097 49.9108 2.57812 50.6227 2.57812H56.8513C59.6166 2.57812 61.8663 4.8278 61.8663 7.59292V15.2799C61.8663 18.0452 59.6166 20.2947 56.8513 20.2947H31.1496C28.3845 20.2947 26.1348 18.045 26.1348 15.2799V7.59292C26.1348 4.82762 28.3845 2.57812 31.1496 2.57812H45.4665C46.1784 2.57812 46.7555 2.00097 46.7555 1.28906C46.7555 0.577156 46.1784 0 45.4665 0H31.1496C27.1578 0 23.8779 3.09702 23.5809 7.01422H20.1309C13.9925 7.01422 8.99854 12.0082 8.99854 18.1466V76.8677C8.99854 83.006 13.9925 88 20.1309 88H67.8692C74.0075 88 79.0015 83.006 79.0015 76.8677V18.1466C79.0017 12.008 74.0077 7.01422 67.8693 7.01422ZM76.4236 76.8675C76.4236 81.5843 72.5861 85.4217 67.8693 85.4217H20.1311C15.4143 85.4217 11.5768 81.5843 11.5768 76.8675V18.1466C11.5768 13.4298 15.4143 9.59234 20.1311 9.59234H23.5567V15.28C23.5567 15.5071 23.5686 15.7314 23.5881 15.9534H22.1728C19.2746 15.9534 16.9168 18.3112 16.9168 21.2094V61.6471C16.9168 62.359 17.494 62.9362 18.2059 62.9362C18.9178 62.9362 19.4949 62.359 19.4949 61.6471V21.2092C19.4949 19.7326 20.6962 18.5314 22.1728 18.5314H24.2896C25.5099 21.0956 28.1258 22.8728 31.1496 22.8728H56.8513C59.8751 22.8728 62.491 21.0956 63.7113 18.5314H65.8275C67.3049 18.5314 68.507 19.7326 68.507 21.2092V73.8029C68.507 75.2806 67.3049 76.4825 65.8275 76.4825H22.1729C20.6963 76.4825 19.4951 75.2804 19.4951 73.8029V66.8032C19.4951 66.0913 18.918 65.5141 18.2061 65.5141C17.4941 65.5141 16.917 66.0913 16.917 66.8032V73.8029C16.917 76.7021 19.2748 79.0606 22.1729 79.0606H65.8275C68.7265 79.0606 71.0851 76.702 71.0851 73.8029V21.2092C71.0851 18.311 68.7265 15.9533 65.8275 15.9533H64.4129C64.4325 15.7312 64.4444 15.5069 64.4444 15.2799V9.59234H67.8693C72.5861 9.59234 76.4236 13.4298 76.4236 18.1466V76.8675Z" fill="#111704"/>
<path d="M42.209 63.5516H55.4119C56.1238 63.5516 56.701 62.9745 56.701 62.2626C56.701 61.5507 56.1238 60.9735 55.4119 60.9735H42.209C41.4971 60.9735 40.9199 61.5507 40.9199 62.2626C40.9199 62.9745 41.4971 63.5516 42.209 63.5516Z" fill="#008751"/>
<path d="M42.209 58.0647H64.3281C65.04 58.0647 65.6172 57.4875 65.6172 56.7756C65.6172 56.0637 65.04 55.4866 64.3281 55.4866H42.209C41.4971 55.4866 40.9199 56.0637 40.9199 56.7756C40.9199 57.4875 41.4971 58.0647 42.209 58.0647Z" fill="#111704"/>
<path d="M26.9805 67.0666H33.6087C35.9431 67.0666 37.8422 65.1676 37.8422 62.8332V56.205C37.8422 55.2736 37.5391 54.412 37.0273 53.7121L39.1812 50.3561C39.5657 49.7569 39.3918 48.9596 38.7926 48.575C38.1933 48.1903 37.396 48.3644 37.0115 48.9636L34.9421 52.1879C34.5226 52.0484 34.0747 51.9716 33.6087 51.9716H26.9805C24.6461 51.9716 22.7471 53.8706 22.7471 56.205V62.8332C22.7471 65.1676 24.6463 67.0666 26.9805 67.0666ZM25.3252 56.205C25.3252 55.2922 26.0677 54.5497 26.9805 54.5497H33.4264L30.5029 59.1047L28.5484 57.1502C28.0451 56.6466 27.2289 56.6467 26.7255 57.1502C26.222 57.6536 26.222 58.4696 26.7255 58.9731L29.8118 62.0596C30.0549 62.3026 30.3833 62.4372 30.7233 62.4372C30.7692 62.4372 30.8154 62.4348 30.8616 62.4298C31.2494 62.388 31.5976 62.1728 31.8083 61.8444L35.2642 56.4597V62.8334C35.2642 63.7462 34.5217 64.4887 33.6089 64.4887H26.9807C26.0679 64.4887 25.3254 63.7462 25.3254 62.8334V56.205H25.3252Z" fill="#111704"/>
<path d="M42.209 43.144H55.4119C56.1238 43.144 56.701 42.5669 56.701 41.855C56.701 41.1431 56.1238 40.5659 55.4119 40.5659H42.209C41.4971 40.5659 40.9199 41.1431 40.9199 41.855C40.9199 42.5669 41.4971 43.144 42.209 43.144Z" fill="#008751"/>
<path d="M42.209 37.6571H64.3281C65.04 37.6571 65.6172 37.0799 65.6172 36.368C65.6172 35.6561 65.04 35.079 64.3281 35.079H42.209C41.4971 35.079 40.9199 35.6561 40.9199 36.368C40.9199 37.0799 41.4971 37.6571 42.209 37.6571Z" fill="black"/>
<path d="M26.9805 46.6591H33.6087C35.9431 46.6591 37.8422 44.76 37.8422 42.4256V35.7974C37.8422 34.866 37.5391 34.0044 37.0273 33.3045L39.1812 29.9485C39.5657 29.3494 39.3918 28.552 38.7926 28.1674C38.1933 27.7827 37.396 27.9568 37.0115 28.556L34.9421 31.7804C34.5226 31.6408 34.0747 31.564 33.6087 31.564H26.9805C24.6461 31.564 22.7471 33.463 22.7471 35.7974V42.4256C22.7471 44.76 24.6463 46.6591 26.9805 46.6591ZM25.3252 35.7974C25.3252 34.8846 26.0677 34.1421 26.9805 34.1421H33.4264L30.5029 38.6971L28.5484 36.7426C28.0451 36.239 27.2289 36.2391 26.7255 36.7426C26.222 37.246 26.222 38.062 26.7255 38.5655L29.8118 41.652C30.0549 41.895 30.3833 42.0296 30.7233 42.0296C30.7692 42.0296 30.8154 42.0272 30.8616 42.0222C31.2494 41.9805 31.5976 41.7653 31.8083 41.4368L35.2642 36.0521V42.4258C35.2642 43.3386 34.5217 44.0811 33.6089 44.0811H26.9807C26.0679 44.0811 25.3254 43.3386 25.3254 42.4258V35.7974H25.3252Z" fill="#111704"/>
</svg>
