<svg width="88" height="88" viewBox="0 0 88 88" fill="none" xmlns="http://www.w3.org/2000/svg">
<g clip-path="url(#clip0)">
<path d="M79.0062 34.0777V79.8566C79.0062 83.643 75.9382 86.7109 72.1535 86.7109H15.8473C12.6126 86.7109 9.90213 84.4697 9.18197 81.455L9.15447 77.5362L8.99463 54.1991V8.14344C8.99463 4.35703 12.0626 1.28906 15.8473 1.28906H46.2176C48.947 1.28906 57.7865 8.82578 65.5999 16.763C72.7293 24.0075 79.0062 31.5855 79.0062 34.0777Z" fill="white"/>
<path d="M79.0063 34.0776V50.8475C79.0063 50.8286 79.0046 50.8097 79.0046 50.789C78.4889 30.2122 61.7277 29.26 56.2466 23.7789L65.6 16.7629C72.7294 24.0075 79.0063 31.5854 79.0063 34.0776Z" fill="white"/>
<path d="M46.2166 1.28906H29.4468C29.4657 1.28906 29.4846 1.29078 29.5052 1.29078C50.0821 1.80641 51.0343 18.5677 56.5154 24.0487L63.5313 14.6953C56.2868 7.56594 48.7088 1.28906 46.2166 1.28906Z" fill="white"/>
<path d="M79.0057 34.0787V36.9779C79.0057 30.8739 74.0561 25.9242 67.9521 25.9242H61.2244C57.4399 25.9242 54.3705 22.8549 54.3705 19.0704V12.3427C54.3705 6.23872 49.4209 1.28906 43.3169 1.28906H46.2161C51.4364 1.28906 56.4447 3.36325 60.1361 7.05461L73.2402 20.1587C76.9315 23.8499 79.0057 28.8582 79.0057 34.0787Z" fill="white"/>
<path d="M47.459 49.8792H40.5404C38.7891 49.8792 37.3696 51.2987 37.3696 53.0499V63.4081C37.3696 65.1594 38.7891 66.5789 40.5404 66.5789H47.459C49.2103 66.5789 50.6298 65.1594 50.6298 63.4081V53.0499C50.6298 51.2987 49.2103 49.8792 47.459 49.8792Z" fill="white"/>
<path d="M67.2344 33.7344H60.3158C58.5645 33.7344 57.145 35.154 57.145 36.9052V63.408C57.145 65.1592 58.5645 66.5787 60.3158 66.5787H67.2344C68.9857 66.5787 70.4052 65.1592 70.4052 63.408V36.9052C70.4052 35.1541 68.9857 33.7344 67.2344 33.7344Z" fill="white"/>
<path d="M27.6832 20.6558H20.7645C19.0133 20.6558 17.5938 22.0753 17.5938 23.8265V63.4081C17.5938 65.1594 19.0133 66.5789 20.7645 66.5789H27.6832C29.4344 66.5789 30.8539 65.1594 30.8539 63.4081V23.8265C30.8539 22.0753 29.4342 20.6558 27.6832 20.6558Z" fill="white"/>
<path d="M74.152 19.2472L61.0479 6.14316C57.0865 2.18178 51.8194 0 46.2166 0H46.2164H15.8463C11.3569 0 7.70459 3.65303 7.70459 8.14344V54.208L7.88197 80.0267C7.90517 83.4053 10.0053 86.4196 13.1078 87.5277C13.9856 87.841 14.9068 88 15.8463 88H72.1527C76.6419 88 80.2943 84.3477 80.2943 79.8583L80.2951 34.0787C80.295 28.4757 78.1134 23.2086 74.152 19.2472ZM59.2246 7.96606L72.3287 21.0702C74.423 23.1643 75.95 25.6743 76.8327 28.4142C74.5865 26.0855 71.4358 24.6352 67.9523 24.6352H61.2246C58.1559 24.6352 55.6596 22.1389 55.6596 19.0704V12.3427C55.6596 8.85912 54.2093 5.70831 51.8806 3.46208C54.6206 4.34483 57.1307 5.87194 59.2246 7.96606ZM77.716 79.8583C77.716 82.9261 75.2202 85.4219 72.1526 85.4219H15.8463C15.2033 85.4219 14.5737 85.3134 13.9751 85.0996C11.8885 84.3544 10.4761 82.3085 10.4603 80.009L10.2827 54.1991V8.14344C10.2827 5.07478 12.7785 2.57812 15.8463 2.57812H43.3173C48.7014 2.57812 53.0818 6.95853 53.0818 12.3427V19.0704C53.0818 23.5605 56.7349 27.2133 61.2249 27.2133H67.9526C73.3258 27.2133 77.6983 31.5758 77.7163 36.9449V79.8583H77.716Z" fill="#111704"/>
<path d="M37.7823 77.4367H20.5654C19.8535 77.4367 19.2764 78.0139 19.2764 78.7258C19.2764 79.4377 19.8535 80.0148 20.5654 80.0148H37.7823C38.4942 80.0148 39.0714 79.4377 39.0714 78.7258C39.0714 78.0139 38.4942 77.4367 37.7823 77.4367Z" fill="#008751"/>
<path d="M67.4333 70.5804H60.3091C59.597 70.5804 59.02 71.1576 59.02 71.8695C59.02 72.5814 59.597 73.1586 60.3091 73.1586H67.4333C68.1454 73.1586 68.7224 72.5814 68.7224 71.8695C68.7224 71.1576 68.1454 70.5804 67.4333 70.5804Z" fill="black"/>
<path d="M54.5412 70.5804H20.5649C19.853 70.5804 19.2759 71.1576 19.2759 71.8695C19.2759 72.5814 19.853 73.1586 20.5649 73.1586H54.5412C55.2533 73.1586 55.8303 72.5814 55.8303 71.8695C55.8303 71.1576 55.2533 70.5804 54.5412 70.5804Z" fill="black"/>
<path d="M36.0811 53.0499V63.4081C36.0811 65.8673 38.0817 67.8679 40.5409 67.8679H47.4595C49.9187 67.8679 51.9193 65.8673 51.9193 63.4081V53.0499C51.9193 50.5907 49.9185 48.5901 47.4595 48.5901H40.5409C38.0817 48.5901 36.0811 50.5907 36.0811 53.0499ZM38.6592 53.0499C38.6592 52.0123 39.5033 51.1682 40.5409 51.1682H47.4595C48.4971 51.1682 49.3412 52.0123 49.3412 53.0499V63.4081C49.3412 64.4457 48.4971 65.2898 47.4595 65.2898H40.5409C39.5033 65.2898 38.6592 64.4457 38.6592 63.4081V53.0499Z" fill="#008751"/>
<path d="M67.2347 32.4454H60.3163C57.8571 32.4454 55.8564 34.446 55.8564 36.9052V63.408C55.8564 65.8672 57.8572 67.8678 60.3163 67.8678H67.2347C69.6939 67.8678 71.6946 65.8672 71.6946 63.408V36.9052C71.6946 34.4462 69.6938 32.4454 67.2347 32.4454ZM69.1164 63.408C69.1164 64.4456 68.2724 65.2897 67.2347 65.2897H60.3163C59.2787 65.2897 58.4346 64.4456 58.4346 63.408V36.9052C58.4346 35.8676 59.2787 35.0235 60.3163 35.0235H67.2347C68.2724 35.0235 69.1164 35.8676 69.1164 36.9052V63.408Z" fill="#111704"/>
<path d="M27.6823 67.8683C30.1417 67.8683 32.1425 65.8675 32.1425 63.4081V23.827C32.1425 21.3677 30.1417 19.3669 27.6823 19.3669H20.7644C18.305 19.3669 16.3042 21.3677 16.3042 23.827V27.9881C16.3042 28.7 16.8814 29.2772 17.5933 29.2772C18.3052 29.2772 18.8823 28.7 18.8823 27.9881V23.827C18.8823 22.7893 19.7266 21.945 20.7644 21.945H27.6823C28.7201 21.945 29.5644 22.7893 29.5644 23.827V63.4081C29.5644 64.4459 28.7201 65.2902 27.6823 65.2902H20.7644C19.7266 65.2902 18.8823 64.4459 18.8823 63.4081V33.7563C18.8823 33.0443 18.3052 32.4672 17.5933 32.4672C16.8814 32.4672 16.3042 33.0443 16.3042 33.7563V63.4081C16.3042 65.8675 18.305 67.8683 20.7644 67.8683H27.6823Z" fill="#111704"/>
<path d="M20.5654 13.6713H37.7823C38.4942 13.6713 39.0714 13.0941 39.0714 12.3822C39.0714 11.6703 38.4942 11.0931 37.7823 11.0931H20.5654C19.8535 11.0931 19.2764 11.6703 19.2764 12.3822C19.2764 13.0941 19.8535 13.6713 20.5654 13.6713Z" fill="#008751"/>
</g>
<defs>
<clipPath id="clip0">
<rect width="88" height="88" fill="white"/>
</clipPath>
</defs>
</svg>
