<svg width="88" height="88" viewBox="0 0 88 88" fill="none" xmlns="http://www.w3.org/2000/svg">
<path d="M79.0062 34.0777V79.8566C79.0062 83.643 75.9382 86.7109 72.1535 86.7109H15.8473C12.6126 86.7109 9.90213 84.4697 9.18197 81.455L9.15447 77.5362L8.99463 54.1991V8.14344C8.99463 4.35703 12.0626 1.28906 15.8473 1.28906H46.2176C48.947 1.28906 57.7865 8.82578 65.5999 16.763C72.7293 24.0075 79.0062 31.5855 79.0062 34.0777Z" fill="white"/>
<path d="M79.0063 34.0776V50.8475C79.0063 50.8286 79.0046 50.8097 79.0046 50.789C78.4889 30.2122 61.7277 29.26 56.2466 23.7789L65.6 16.7629C72.7294 24.0075 79.0063 31.5854 79.0063 34.0776Z" fill="white"/>
<path d="M46.2166 1.28906H29.4468C29.4657 1.28906 29.4846 1.29078 29.5052 1.29078C50.0821 1.80641 51.0343 18.5677 56.5154 24.0487L63.5313 14.6953C56.2868 7.56594 48.7088 1.28906 46.2166 1.28906Z" fill="white"/>
<path d="M79.0062 34.0787V36.9779C79.0062 30.8739 74.0565 25.9242 67.9526 25.9242H61.2249C57.4404 25.9242 54.371 22.8549 54.371 19.0704V12.3427C54.371 6.23872 49.4214 1.28906 43.3174 1.28906H46.2166C51.4369 1.28906 56.4452 3.36325 60.1366 7.05461L73.2407 20.1587C76.932 23.8499 79.0062 28.8582 79.0062 34.0787Z" fill="white"/>
<path d="M80.2951 34.0787C80.2951 28.4759 78.1135 23.2088 74.152 19.2472L61.0479 6.14316C57.1147 2.2098 51.7799 0 46.2173 0H46.2166H46.2164H15.8463C11.3497 0 7.70459 3.64512 7.70459 8.14172V54.208L7.82748 72.0782C7.83229 72.7856 8.40893 73.3556 9.11637 73.3523H9.12548C9.83739 73.3475 10.4106 72.7664 10.4056 72.0545L10.2829 54.1991V8.14172C10.2829 5.06894 12.7737 2.57812 15.8463 2.57812H43.3173C48.71 2.57812 53.0818 6.94994 53.0818 12.3427V19.0704C53.0818 23.5677 56.7275 27.2133 61.2247 27.2133H67.9524C73.3256 27.2133 77.6981 31.5758 77.7161 36.9449V79.8566C77.7161 82.9302 75.2245 85.4219 72.1508 85.4219H15.8463C15.7669 85.4219 15.6878 85.4202 15.6091 85.4169C12.7369 85.2973 10.4919 82.8807 10.4481 80.0064L10.4053 77.1999C10.3944 76.488 9.8037 75.9156 9.09678 75.9306C8.38487 75.9414 7.81665 76.5273 7.82748 77.2391L7.87956 80.6558C7.89365 81.5825 8.0877 82.5015 8.48181 83.3405C9.80181 86.1493 12.634 88 15.8463 88H72.1526C76.6419 88 80.2943 84.3468 80.2943 79.8566L80.2951 34.0787ZM67.9524 24.6352H61.2247C58.1563 24.6352 55.66 22.1389 55.66 19.0704V12.3427C55.66 8.85912 54.2097 5.70848 51.8809 3.46208C54.6208 4.34483 57.1309 5.87194 59.225 7.96606L72.3291 21.0702C74.4232 23.1643 75.9501 25.6742 76.8331 28.4142C74.5867 26.0855 71.436 24.6352 67.9524 24.6352Z" fill="black"/>
<path d="M20.5659 61.9067H37.7828C38.4947 61.9067 39.0719 61.3296 39.0719 60.6177C39.0719 59.9058 38.4947 59.3286 37.7828 59.3286H20.5659C19.854 59.3286 19.2769 59.9058 19.2769 60.6177C19.2769 61.3296 19.854 61.9067 20.5659 61.9067Z" fill="#008751"/>
<path d="M20.5659 55.0498H67.4342C68.1461 55.0498 68.7232 54.4726 68.7232 53.7607C68.7232 53.0488 68.1461 52.4717 67.4342 52.4717H20.5659C19.854 52.4717 19.2769 53.0488 19.2769 53.7607C19.2769 54.4726 19.854 55.0498 20.5659 55.0498Z" fill="#111704"/>
<path d="M67.4343 45.6147H60.6504C59.9385 45.6147 59.3613 46.1919 59.3613 46.9038C59.3613 47.6157 59.9385 48.1929 60.6504 48.1929H67.4343C68.1462 48.1929 68.7234 47.6157 68.7234 46.9038C68.7234 46.1919 68.1462 45.6147 67.4343 45.6147Z" fill="#111704"/>
<path d="M20.5659 48.1929H55.494C56.2059 48.1929 56.7831 47.6157 56.7831 46.9038C56.7831 46.1919 56.2059 45.6147 55.494 45.6147H20.5659C19.854 45.6147 19.2769 46.1919 19.2769 46.9038C19.2769 47.6157 19.854 48.1929 20.5659 48.1929Z" fill="#111704"/>
<path d="M20.5659 41.3359H67.4342C68.1461 41.3359 68.7232 40.7588 68.7232 40.0469C68.7232 39.335 68.1461 38.7578 67.4342 38.7578H20.5659C19.854 38.7578 19.2769 39.335 19.2769 40.0469C19.2769 40.7588 19.854 41.3359 20.5659 41.3359Z" fill="#111704"/>
<path d="M20.5659 22.3173H37.7828C38.4947 22.3173 39.0719 21.7402 39.0719 21.0283C39.0719 20.3164 38.4947 19.7392 37.7828 19.7392H20.5659C19.854 19.7392 19.2769 20.3164 19.2769 21.0283C19.2769 21.7402 19.854 22.3173 20.5659 22.3173Z" fill="#008751"/>
</svg>
