<svg width="56" height="56" viewBox="0 0 56 56" fill="none" xmlns="http://www.w3.org/2000/svg">
<circle cx="28" cy="28" r="28" fill="#008751"/>
<path d="M37.427 27.7687C37.1087 27.7687 36.854 28.0233 36.854 28.3417V33.5539C36.854 34.9715 35.6995 36.1218 34.2861 36.1218H21.7139C20.2963 36.1218 19.146 34.9673 19.146 33.5539V28.2568C19.146 27.9384 18.8913 27.6838 18.573 27.6838C18.2547 27.6838 18 27.9384 18 28.2568V33.5539C18 35.604 19.6681 37.2678 21.7139 37.2678H34.2861C36.3362 37.2678 38 35.5997 38 33.5539V28.3417C38 28.0276 37.7453 27.7687 37.427 27.7687Z" fill="white"/>
<path d="M27.597 32.7177C27.7073 32.8281 27.8559 32.8875 28.0002 32.8875C28.1445 32.8875 28.2931 32.8323 28.4034 32.7177L32.0452 29.076C32.2701 28.851 32.2701 28.4902 32.0452 28.2653C31.8202 28.0403 31.4594 28.0403 31.2345 28.2653L28.5732 30.9308V19.3052C28.5732 18.9868 28.3185 18.7322 28.0002 18.7322C27.6818 18.7322 27.4272 18.9868 27.4272 19.3052V30.9308L24.7616 28.2653C24.5367 28.0403 24.1759 28.0403 23.9509 28.2653C23.726 28.4902 23.726 28.851 23.9509 29.076L27.597 32.7177Z" fill="white"/>
</svg>
