<svg width="52" height="52" viewBox="0 0 52 52" fill="none" xmlns="http://www.w3.org/2000/svg">
<circle cx="26" cy="26" r="25" stroke="white" stroke-width="2"/>
<path d="M20.3251 26.7824H22.9559V37.6129C22.9559 37.8267 23.1291 38 23.343 38H27.8036C28.0174 38 28.1907 37.8267 28.1907 37.6129V26.8334H31.215C31.4116 26.8334 31.5771 26.6859 31.5996 26.4905L32.0589 22.5033C32.0715 22.3936 32.0368 22.2838 31.9633 22.2014C31.8899 22.1191 31.7848 22.0719 31.6744 22.0719H28.1908V19.5725C28.1908 18.8191 28.5965 18.437 29.3968 18.437C29.5108 18.437 31.6744 18.437 31.6744 18.437C31.8883 18.437 32.0615 18.2637 32.0615 18.0499V14.39C32.0615 14.1761 31.8883 14.0029 31.6744 14.0029H28.5354C28.5133 14.0018 28.4641 14 28.3917 14C27.847 14 25.9539 14.1069 24.4584 15.4827C22.8015 17.0072 23.0318 18.8326 23.0869 19.1491V22.0718H20.3251C20.1112 22.0718 19.938 22.2451 19.938 22.4589V26.3953C19.938 26.609 20.1113 26.7824 20.3251 26.7824Z" fill="white"/>
</svg>
