<svg width="214" height="214" viewBox="0 0 214 214" fill="none" xmlns="http://www.w3.org/2000/svg">
<g clip-path="url(#clip0)">
<path d="M168.789 190.817H9.14877C7.41211 190.817 5.77409 190.008 4.71831 188.629C3.66252 187.25 3.30891 185.458 3.76241 183.781L40.0195 84.3741C40.6774 81.9407 42.8851 80.25 45.4059 80.25H205.046C208.72 80.25 210.432 83.7609 210.432 87.2857L174.175 186.693C173.518 189.126 171.31 190.817 168.789 190.817Z" fill="#CDDDAC"/>
<path d="M158.089 190.817H9.14877C7.41211 190.817 5.77409 190.008 4.7183 188.629C3.66252 187.25 3.30891 185.458 3.76241 183.781L40.0195 84.3741C40.6774 81.9407 42.8851 80.25 45.4059 80.25H194.346C198.02 80.25 199.732 83.7609 199.732 87.2857L163.475 186.693C162.818 189.126 160.61 190.817 158.089 190.817Z" fill="#EEF3E2"/>
<path d="M182.854 48.15H92.7334L74.8999 23.1831H9.74566C8.1068 23.1831 6.53524 23.8338 5.37621 24.9929C4.21718 26.1519 3.56641 27.7234 3.56641 29.3623V181.757C3.81343 181.766 4.05752 181.778 4.29911 181.794L40.02 84.3741C40.6774 81.9403 42.8856 80.2496 45.4063 80.25H189.033V54.3288C189.033 52.69 188.382 51.1184 187.223 49.9594C186.064 48.8004 184.493 48.1496 182.854 48.15Z" fill="#B5CD84"/>
<path d="M172.154 48.15H92.7334L74.8999 23.1831H9.74566C8.1068 23.1831 6.53524 23.8338 5.37621 24.9929C4.21718 26.1519 3.56641 27.7234 3.56641 29.3623V181.757C3.81343 181.766 4.05752 181.778 4.29911 181.794L40.02 84.3741C40.6774 81.9403 42.8856 80.2496 45.4063 80.25H178.333V54.3288C178.333 52.69 177.682 51.1184 176.523 49.9594C175.364 48.8004 173.793 48.1496 172.154 48.15Z" fill="#CFDFAF"/>
<path d="M14.267 23.1831H13.0202C11.3813 23.1831 9.80977 23.8338 8.65075 24.9924C7.49172 26.151 6.84094 27.723 6.84094 29.3619V181.757C7.08796 181.766 7.33247 181.778 7.57364 181.793L14.2666 162.283V23.1831H14.267Z" fill="white"/>
<path d="M168.789 194.383H9.14963C6.30201 194.383 3.61656 193.057 1.88575 190.796C0.154944 188.534 -0.423943 185.596 0.320041 182.847L36.6695 83.1511C37.8198 79.292 41.3805 76.6567 45.4072 76.6831H205.047C210.235 76.6831 214 81.1415 214 87.2857C214 87.7028 213.927 88.1166 213.784 88.5082L177.527 187.915C176.376 191.774 172.816 194.41 168.789 194.383ZM45.4067 83.8165C44.4981 83.8182 43.7023 84.4272 43.4632 85.3037L7.11371 185.003C7.05226 185.528 7.21067 186.055 7.5509 186.459C7.92749 186.962 8.52101 187.256 9.14963 187.25H168.789C169.698 187.248 170.494 186.639 170.733 185.763L206.837 86.739C206.748 85.7638 206.401 83.8165 205.047 83.8165H45.4067Z" fill="#7FAF1B"/>
<path d="M4.30173 185.362C4.21647 185.362 4.1312 185.358 4.04385 185.352L3.41689 185.32C1.50678 185.24 -0.000417882 183.669 8.69108e-08 181.757V29.3623C0.00585165 23.9822 4.36568 19.6224 9.74578 19.6165H74.9C76.0519 19.6174 77.1332 20.1737 77.8032 21.1108L94.5688 44.5831H182.854C188.234 44.5889 192.594 48.9487 192.6 54.3288V80.25C192.6 81.1959 192.225 82.1033 191.555 82.7724C190.887 83.4412 189.979 83.817 189.033 83.817H45.4073C44.4986 83.8186 43.7028 84.4276 43.4637 85.3041L7.64883 183.025C7.13264 184.428 5.79681 185.361 4.30173 185.362ZM9.74578 26.75C8.30337 26.7513 7.13473 27.9199 7.13347 29.3623V163.708L36.6717 83.1444C37.8241 79.2887 41.3831 76.6563 45.4073 76.6835H185.467V54.3293C185.465 52.8868 184.297 51.7182 182.854 51.7169H92.7335C91.5811 51.7161 90.5003 51.1598 89.8303 50.2227L73.0643 26.75H9.74578Z" fill="#7FAF1B"/>
</g>
<defs>
<clipPath id="clip0">
<rect width="214" height="214" fill="white"/>
</clipPath>
</defs>
</svg>
