<svg width="110" height="214" viewBox="0 0 110 214" fill="none" xmlns="http://www.w3.org/2000/svg">
<path d="M4.23833 117.491V161.548C3.74276 169.504 7.19639 177.193 13.4698 182.111C15.5769 183.701 16.8197 186.185 16.8274 188.824V201.411C16.8274 206.046 20.5845 209.803 25.2194 209.803H79.7264C84.3613 209.803 88.1184 206.046 88.1184 201.411V191.467C88.1453 189.74 88.6851 188.059 89.6704 186.642C106.414 162.472 104.903 142.667 104.903 142.667V90.2149C104.903 84.4218 100.206 79.7254 94.4129 79.7254C88.6198 79.7254 83.9234 84.4218 83.9234 90.2149V81.8229C84.1692 77.9256 82.2292 74.2126 78.8889 72.1881C75.5486 70.1636 71.3593 70.1636 68.0171 72.1881C64.6768 74.2126 62.7368 77.9256 62.9846 81.8229V73.4309C62.9846 67.6377 58.2882 62.9413 52.4931 62.9413C46.6999 62.9413 42.0035 67.6377 42.0035 73.4309V14.6866C42.0035 8.89145 37.3071 4.19506 31.5139 4.19506C25.7207 4.19506 21.0224 8.89145 21.0224 14.6866V104.901H16.8274C9.87592 104.901 4.23833 110.537 4.23833 117.491Z" fill="#EDF3E2"/>
<path d="M89.6698 186.642C88.6845 188.059 88.1447 189.74 88.1178 191.467V201.411C88.1178 206.046 84.3607 209.803 79.7258 209.803H67.1387C71.7717 209.803 75.5307 206.046 75.5307 201.411V191.467C75.5557 189.74 76.0974 188.059 77.0827 186.642C93.8246 162.472 92.3148 142.667 92.3148 142.667V90.215C92.3186 87.4317 91.218 84.7599 89.2511 82.7891C88.9015 82.4337 88.5231 82.111 88.1178 81.8229C91.2968 79.4392 95.5495 79.055 99.103 80.8337C102.658 82.6105 104.902 86.2427 104.902 90.215V142.667C104.902 142.667 106.414 162.472 89.6698 186.642Z" fill="#CDDDAC"/>
<path d="M109.107 90.215C109.107 82.1053 102.532 75.5284 94.42 75.5284C91.9498 75.5476 89.5257 76.193 87.3763 77.4089C86.1028 73.2004 82.9853 69.7986 78.9036 68.1659C74.8219 66.5332 70.2177 66.8463 66.3952 69.0168C65.1582 64.9639 62.2098 61.6543 58.3259 59.9621C54.4401 58.2699 50.0088 58.3621 46.1998 60.2176V14.6866C46.1998 6.57495 39.6248 0 31.5132 0C23.4016 0 16.8267 6.57495 16.8267 14.6866V100.706C7.55682 100.706 0.0425935 108.221 0.0425935 117.491V161.548C-0.466422 170.828 3.61147 179.767 10.9528 185.466C12.0093 186.26 12.6297 187.502 12.6297 188.824V201.411C12.6297 208.364 18.2673 214 25.2187 214H79.768C86.7194 214 92.357 208.364 92.357 201.411V191.459C92.3743 190.591 92.6528 189.748 93.1541 189.037C110.491 163.907 109.162 143.22 109.107 142.667V90.215ZM86.2181 184.272C84.741 186.379 83.9457 188.885 83.9342 191.459V201.411C83.9342 203.729 82.0557 205.608 79.7392 205.608H25.2187C22.9022 205.608 21.0217 203.729 21.0217 201.411V188.824C20.9949 184.771 19.0414 180.973 15.7606 178.594C10.6974 174.437 7.96596 168.083 8.43464 161.548V117.491C8.43464 112.856 12.1918 109.098 16.8267 109.098V151.059C16.8267 153.375 18.7052 155.256 21.0217 155.256C23.3402 155.256 25.2187 153.375 25.2187 151.059V14.6866C25.2187 11.2099 28.0366 8.39204 31.5132 8.39204C34.9899 8.39204 37.8078 11.2099 37.8078 14.6866V79.7254C37.8078 82.0419 39.6863 83.9204 42.0028 83.9204C44.3212 83.9204 46.1998 82.0419 46.1998 79.7254V73.4309C46.1998 69.9542 49.0176 67.1364 52.4924 67.1364C55.9691 67.1364 58.7869 69.9542 58.7869 73.4309V83.9204C58.7869 86.2389 60.6655 88.1174 62.9839 88.1174C65.3004 88.1174 67.1789 86.2389 67.1789 83.9204V81.8229C67.1789 78.3462 69.9968 75.5284 73.4735 75.5284C76.9501 75.5284 79.768 78.3462 79.768 81.8229V96.5095C79.768 98.8279 81.6465 100.706 83.963 100.706C86.2815 100.706 88.16 98.8279 88.16 96.5095V90.215C88.16 86.7402 90.9779 83.9204 94.4545 83.9204C97.9312 83.9204 100.749 86.7402 100.749 90.215V142.964C100.749 143.149 101.788 161.738 86.2181 184.272Z" fill="#7FAF1B"/>
<path d="M37.8081 188.824H33.6111C31.2946 188.824 29.416 190.702 29.416 193.019C29.416 195.337 31.2946 197.216 33.6111 197.216H37.8081C40.1246 197.216 42.0031 195.337 42.0031 193.019C42.0031 190.702 40.1246 188.824 37.8081 188.824Z" fill="#7FAF1B"/>
<path d="M71.3756 188.824H54.5915C52.2731 188.824 50.3945 190.702 50.3945 193.019C50.3945 195.337 52.2731 197.216 54.5915 197.216H71.3756C73.6921 197.216 75.5707 195.337 75.5707 193.019C75.5707 190.702 73.6921 188.824 71.3756 188.824Z" fill="#7FAF1B"/>
</svg>
