<svg width="40" height="40" viewBox="0 0 40 40" fill="none" xmlns="http://www.w3.org/2000/svg">
<circle cx="20" cy="20" r="20" fill="white"/>
<g clip-path="url(#clip0)">
<path d="M27.7314 18.2835L25.3066 15.8586V13.0574C25.3066 12.551 24.8961 12.1405 24.3889 12.1405C23.8828 12.1405 23.4724 12.551 23.4724 13.0574V14.0245L21.6669 12.2189C20.7742 11.3267 19.2222 11.3283 18.3315 12.2205L12.2684 18.2835C11.9105 18.6421 11.9105 19.2224 12.2684 19.5805C12.6265 19.939 13.2079 19.939 13.5659 19.5805L19.6284 13.5173C19.8259 13.3209 20.174 13.3209 20.3705 13.5167L26.434 19.5805C26.6138 19.7597 26.8482 19.8489 27.0826 19.8489C27.3174 19.8489 27.5522 19.7596 27.7315 19.5805C28.0895 19.2224 28.0895 18.6421 27.7314 18.2835Z" fill="#262E3B"/>
<path d="M20.3188 15.2579C20.1427 15.0818 19.8575 15.0818 19.6818 15.2579L14.3487 20.5894C14.2645 20.6736 14.2168 20.7885 14.2168 20.9084V24.7971C14.2168 25.7095 14.9567 26.4494 15.8691 26.4494H18.5096V22.3602H21.4906V26.4494H24.131C25.0435 26.4494 25.7833 25.7095 25.7833 24.7971V20.9084C25.7833 20.7885 25.736 20.6736 25.6514 20.5894L20.3188 15.2579Z" fill="#262E3B"/>
</g>
<defs>
<clipPath id="clip0">
<rect width="16" height="16" fill="white" transform="translate(12 11)"/>
</clipPath>
</defs>
</svg>
