<svg width="20" height="20" viewBox="0 0 20 20" fill="none" xmlns="http://www.w3.org/2000/svg">
<path d="M17.4786 16.6283C19.0455 14.8624 20 12.541 20 10C20 7.35621 18.9669 4.95069 17.2855 3.16069V3.16034C17.2841 3.15828 17.2821 3.15759 17.281 3.15586C15.5297 1.29414 13.0759 0.102414 10.3466 0.00896552L10.3462 0.00862069L10.1514 0.00344828C10.101 0.00172414 10.0507 0 10 0C9.94931 0 9.89897 0.00172414 9.84862 0.00344828L9.65448 0.00862069L9.65414 0.00896552C6.92483 0.102414 4.47103 1.29414 2.71966 3.15586C2.71828 3.15759 2.71621 3.15828 2.71517 3.16034C2.71517 3.16034 2.71517 3.16069 2.71483 3.16103C1.0331 4.95069 0 7.35621 0 10C0 12.541 0.954483 14.8624 2.52138 16.6283C2.52345 16.6314 2.52345 16.6348 2.52586 16.6379C2.53207 16.6466 2.54103 16.6507 2.54759 16.6586C4.30828 18.6269 6.83448 19.8948 9.65379 19.9914L9.65414 19.9917L9.84828 19.9969C9.89897 19.9983 9.94931 20 10 20C10.0507 20 10.101 19.9983 10.1514 19.9966L10.3455 19.9914L10.3459 19.991C13.1683 19.8941 15.6972 18.6238 17.4579 16.6514C17.4624 16.6455 17.4697 16.6438 17.4738 16.6376C17.4766 16.6348 17.4766 16.6314 17.4786 16.6283ZM0.698276 10.3448H4.83724C4.87621 11.8066 5.16172 13.2269 5.67 14.5576C4.68931 14.9124 3.75172 15.3883 2.8731 15.9821C1.58103 14.4452 0.776897 12.4862 0.698276 10.3448ZM3.06138 3.80103C3.91931 4.35897 4.83276 4.80586 5.78552 5.13966C5.20207 6.55586 4.87931 8.08276 4.83724 9.65517H0.698276C0.78069 7.41138 1.65931 5.36828 3.06138 3.80103ZM19.3017 9.65517H15.1628C15.1207 8.08276 14.7979 6.55586 14.2145 5.13966C15.1672 4.80586 16.0807 4.35897 16.9386 3.80103C18.3407 5.36828 19.2193 7.41138 19.3017 9.65517ZM9.65517 5.15966C8.65828 5.13138 7.67966 4.98276 6.73414 4.71724C7.4331 3.28345 8.42 1.98931 9.65517 0.911724V5.15966ZM9.65517 5.84931V9.65517H5.5269C5.56931 8.15586 5.88379 6.70172 6.44621 5.35345C7.48276 5.65379 8.55897 5.82 9.65517 5.84931ZM10.3448 5.84931C11.441 5.82 12.5172 5.65414 13.5541 5.35345C14.1166 6.70172 14.431 8.15586 14.4734 9.65517H10.3448V5.84931ZM10.3448 5.15966V0.911724C11.58 1.98931 12.5669 3.28345 13.2659 4.71724C12.3203 4.98276 11.3417 5.13138 10.3448 5.15966ZM13.9341 4.50759C13.2717 3.11966 12.3524 1.85517 11.2141 0.771379C13.2334 1.03552 15.0503 1.94862 16.4497 3.29483C15.6552 3.79897 14.8124 4.20448 13.9341 4.50759ZM6.06586 4.50759C5.18759 4.20448 4.34483 3.79897 3.55069 3.29483C4.94966 1.94862 6.7669 1.03552 8.78621 0.771379C7.64759 1.85517 6.72828 3.11966 6.06586 4.50759ZM5.5269 10.3448H9.65517V13.8062C8.51483 13.8366 7.39759 14.0145 6.32379 14.3376C5.83862 13.0772 5.56586 11.7307 5.5269 10.3448ZM9.65517 14.4959V19.0883C8.3331 17.9348 7.29655 16.5334 6.59172 14.979C7.58034 14.6876 8.60724 14.5255 9.65517 14.4959ZM10.3448 19.0883V14.4959C11.3928 14.5252 12.4197 14.6876 13.4083 14.9786C12.7034 16.5334 11.6669 17.9348 10.3448 19.0883ZM10.3448 13.8062V10.3448H14.4731C14.4341 11.7307 14.1614 13.0772 13.6759 14.3379C12.6024 14.0145 11.4852 13.8366 10.3448 13.8062ZM15.1628 10.3448H19.3017C19.2231 12.4862 18.4193 14.4452 17.1269 15.9821C16.2483 15.3883 15.3107 14.9124 14.33 14.5576C14.8386 13.2269 15.1238 11.8066 15.1628 10.3448ZM3.34172 16.4986C4.15759 15.9566 5.02621 15.5207 5.93379 15.1948C6.60448 16.6983 7.56724 18.0683 8.78586 19.2286C6.66483 18.951 4.76655 17.9579 3.34172 16.4986ZM11.2141 19.2286C12.4328 18.0686 13.3955 16.6986 14.0662 15.1948C14.9738 15.5207 15.8421 15.9566 16.6583 16.4986C15.2334 17.9579 13.3352 18.951 11.2141 19.2286Z" fill="#1C4E63"/>
</svg>
