<svg width="20" height="20" viewBox="0 0 20 20" fill="none" xmlns="http://www.w3.org/2000/svg">
<path d="M10.0001 0C6.00613 0 2.75684 3.2493 2.75684 7.2432C2.75684 12.1998 9.23883 19.4763 9.5148 19.7836C9.77402 20.0723 10.2266 20.0718 10.4854 19.7836C10.7613 19.4763 17.2433 12.1998 17.2433 7.2432C17.2432 3.2493 13.994 0 10.0001 0ZM10.0001 18.3488C7.81855 15.7575 4.06121 10.645 4.06121 7.24328C4.06121 3.96852 6.72535 1.30438 10.0001 1.30438C13.2748 1.30438 15.9389 3.96852 15.9389 7.24324C15.9389 10.6451 12.1821 15.7566 10.0001 18.3488Z" fill="#1C4E63"/>
<path d="M9.99968 3.599C7.99023 3.599 6.35547 5.2338 6.35547 7.24326C6.35547 9.25271 7.99027 10.8875 9.99968 10.8875C12.0091 10.8875 13.6439 9.25271 13.6439 7.24326C13.6439 5.2338 12.0091 3.599 9.99968 3.599ZM9.99968 9.58314C8.70945 9.58314 7.65984 8.53349 7.65984 7.24326C7.65984 5.95302 8.70949 4.90337 9.99968 4.90337C11.2899 4.90337 12.3395 5.95302 12.3395 7.24326C12.3395 8.53349 11.2899 9.58314 9.99968 9.58314Z" fill="#1C4E63"/>
</svg>
