<svg width="80" height="32" viewBox="0 0 80 32" fill="none" xmlns="http://www.w3.org/2000/svg">
<g clip-path="url(#clip0)">
<path fill-rule="evenodd" clip-rule="evenodd" d="M82.2638 2.56127C82.2616 2.57083 82.2627 2.60573 82.2661 2.63918C82.2719 2.69424 82.2249 2.70005 81.7534 2.704C81.4682 2.70649 81.2185 2.71231 81.199 2.71709C81.1793 2.72187 81.1248 2.72769 81.0776 2.72997C81.0102 2.7335 80.9959 2.74908 81.0104 2.80352C81.0269 2.86481 80.1597 2.92111 79.9027 2.8754C79.855 2.86709 79.737 2.98198 79.7586 3.01606C79.7693 3.03247 79.5482 3.04784 79.2679 3.05013C78.477 3.05678 78.4935 3.05491 78.4264 3.13947C78.3691 3.21156 78.3366 3.21592 77.7958 3.22299C77.2158 3.23067 77.1236 3.24002 77.1542 3.28802C77.2002 3.36032 77.0405 3.38774 76.5162 3.39709C76.0082 3.40623 75.9481 3.41371 75.9334 3.46898C75.9242 3.50305 75.8825 3.53234 75.8408 3.53421C75.7989 3.53608 75.565 3.54335 75.321 3.55042C75.0771 3.55748 74.857 3.57078 74.8322 3.58013C74.8072 3.58948 74.7775 3.582 74.7658 3.56351C74.7416 3.52569 74.6422 3.60859 74.6422 3.66676C74.6422 3.70894 74.6627 3.70686 74.0899 3.72265C73.552 3.7374 73.3593 3.76379 73.3593 3.82321C73.3593 3.88948 73.2909 3.89738 72.7269 3.89572C72.4476 3.89488 72.2191 3.90423 72.2191 3.91628C72.2189 3.95763 72.0446 3.97072 72.0019 3.93249C71.9702 3.90423 71.9657 3.90548 71.9843 3.93768C71.9989 3.96261 71.9897 3.98111 71.9627 3.98152C71.9251 3.98194 71.9251 3.98755 71.9636 4.01123C72.0373 4.05652 71.9351 4.06753 71.4351 4.06753C71.19 4.06753 70.9816 4.07751 70.9717 4.08976C70.9619 4.10223 70.914 4.11781 70.8648 4.12446C70.8159 4.13132 70.7588 4.1577 70.738 4.18346C70.712 4.21567 70.5809 4.23437 70.3104 4.24392C70.096 4.2514 69.877 4.26324 69.8236 4.27031C69.7701 4.27716 69.7351 4.26948 69.7455 4.25306C69.7804 4.19801 69.7152 4.22273 69.6634 4.28381C69.6354 4.31726 69.6226 4.32495 69.635 4.30126C69.6474 4.27737 69.6406 4.25784 69.6198 4.25784C69.5991 4.25784 69.582 4.26968 69.582 4.28423C69.582 4.38416 69.3301 4.42093 68.5664 4.43236C68.3697 4.43527 68.2239 4.46581 68.2452 4.49947C68.2777 4.55078 68.1431 4.57842 67.8003 4.5913C67.2425 4.61187 67.1636 4.61104 67.1191 4.58444C67.0903 4.5672 67.086 4.57364 67.1059 4.6048C67.1273 4.63846 67.1185 4.64448 67.0723 4.62724C67.0278 4.61062 67.0043 4.62392 66.9911 4.67336C66.9808 4.71138 66.9543 4.74379 66.932 4.74525C66.9098 4.7467 66.7232 4.75439 66.5175 4.76228C66.3116 4.77018 66.0719 4.78389 65.9844 4.79262C65.8966 4.80155 65.8049 4.79179 65.7788 4.7708C65.7433 4.74213 65.7364 4.74463 65.7501 4.78098C65.7931 4.89442 65.7146 4.91873 65.2494 4.93514C64.9962 4.94428 64.7456 4.95696 64.6922 4.9634C64.6387 4.97005 64.6037 4.96194 64.6141 4.94553C64.6437 4.8992 64.5812 4.91063 64.4989 4.96651C64.4579 4.99435 64.4142 5.00744 64.4018 4.99539C64.3894 4.98334 64.3794 4.99352 64.3794 5.01825C64.3794 5.05357 64.3668 5.05294 64.3191 5.01534C64.286 4.98916 64.2697 4.98542 64.2832 5.00703C64.3313 5.08535 64.2107 5.10779 63.7469 5.10696C63.4872 5.10654 63.2749 5.11631 63.2746 5.12877C63.2746 5.14124 63.2282 5.1481 63.1712 5.14436C63.0888 5.13875 63.0702 5.15017 63.0801 5.19983C63.0942 5.27067 63.1089 5.26756 62.7046 5.27815C62.5379 5.28272 62.3125 5.29124 62.2035 5.29748C62.0944 5.30371 61.986 5.29727 61.9629 5.28335C61.9396 5.26943 61.9206 5.27441 61.9206 5.29457C61.9206 5.31493 61.8845 5.33238 61.8404 5.33383C61.7658 5.33612 61.7649 5.33799 61.8302 5.36271C61.9465 5.40697 61.7369 5.44644 61.3435 5.45433C60.9339 5.46265 60.7607 5.48986 60.7449 5.54824C60.6878 5.75663 60.7152 26.0673 60.7725 26.1766C60.8075 26.2433 60.8541 26.2944 60.8764 26.2902C60.8984 26.2861 61.3192 26.2811 61.8111 26.2794L62.7059 26.2761L62.7615 26.1936C62.8455 26.069 62.8415 26.4074 62.8445 19.4158L62.847 12.8454H64.4506H66.0541V19.4744V26.1035L66.1343 26.1928L66.2145 26.2823H69.8672H73.5197L73.5999 26.1928L73.68 26.1035V18.1992V10.2949L73.5977 10.2199L73.5156 10.1449L70.8449 10.136L68.1745 10.1271V8.89797V7.66865H75.3013C80.0111 7.66865 82.4374 7.65681 82.4551 7.63395C82.4718 7.61214 82.4962 7.61858 82.5208 7.6514C82.5539 7.69566 82.5569 7.69441 82.5402 7.64372C82.5293 7.6111 82.5362 7.57495 82.5552 7.56352C82.5742 7.55209 82.5806 7.5282 82.5693 7.51033C82.558 7.49267 82.5719 7.47813 82.6001 7.47813C82.7307 7.47813 82.7333 7.43159 82.7318 5.14664C82.7301 2.76197 82.7271 2.69964 82.6157 2.69964C82.5614 2.69964 82.5484 2.68156 82.5601 2.62173C82.574 2.55047 82.2807 2.49042 82.2638 2.56127ZM66.0541 8.63827V10.2829H64.4506H62.847V8.63827V6.99343H64.4506H66.0541V8.63827ZM82.518 10.1271C82.5176 10.1499 81.5804 10.1589 79.7614 10.1535L77.0052 10.1452L76.9639 10.233C76.9331 10.2987 76.9229 12.3221 76.9229 18.2314V26.1421H77.1307C77.3139 26.1421 77.3438 26.1321 77.3845 26.0584C77.4097 26.0125 77.4619 25.9667 77.4999 25.957C77.5382 25.9474 77.5782 25.9071 77.5889 25.8676C77.6017 25.8196 77.6372 25.7958 77.6947 25.7958C77.7424 25.7958 77.8168 25.759 77.86 25.7139C77.903 25.669 77.9727 25.6219 78.0148 25.609C78.0567 25.5961 78.0992 25.555 78.1093 25.5176C78.1195 25.4802 78.1576 25.4494 78.1944 25.4494C78.2538 25.4494 78.3374 25.3908 78.5818 25.1779C78.622 25.1428 78.6981 25.1037 78.7507 25.0908C78.8035 25.0779 78.8448 25.0559 78.8426 25.042C78.8302 24.9643 78.8585 24.9331 78.9609 24.9113C79.0817 24.8856 79.1792 24.8141 79.1424 24.7784C79.1302 24.7665 79.1561 24.757 79.1999 24.757C79.2809 24.757 79.4141 24.6572 79.3816 24.6209C79.3718 24.6101 79.3983 24.5964 79.4407 24.5905C79.4873 24.5841 79.526 24.5467 79.5392 24.4952C79.5557 24.4318 79.5854 24.4104 79.6585 24.4096C79.762 24.4083 79.8805 24.3398 79.8805 24.281C79.8805 24.2617 79.9138 24.2371 79.9544 24.2267C79.9951 24.2166 80.0365 24.1773 80.0468 24.1395C80.0588 24.0948 80.1073 24.0632 80.1862 24.0489C80.2527 24.0366 80.3239 23.9963 80.3446 23.9589C80.366 23.9201 80.419 23.8912 80.4691 23.8912C80.5313 23.8912 80.5623 23.8675 80.5777 23.8081C80.5933 23.7472 80.6318 23.7188 80.7205 23.7026C80.7872 23.6905 80.858 23.651 80.8779 23.6151C80.8975 23.5792 80.9578 23.5447 81.0119 23.5386C81.0821 23.5308 81.1131 23.5056 81.1212 23.4497C81.1291 23.3963 81.1571 23.3718 81.2103 23.3714C81.3305 23.3708 81.4496 23.3325 81.4295 23.301C81.4066 23.2652 81.5567 23.1609 81.5967 23.1848C81.6132 23.1948 81.6266 23.1855 81.6266 23.1641C81.6266 23.1429 81.6412 23.1341 81.6589 23.1447C81.6767 23.1555 81.6829 23.1331 81.6726 23.0949C81.657 23.0369 81.6713 23.0257 81.762 23.0257C81.8977 23.0257 81.9884 22.9931 81.9632 22.9532C81.9409 22.9185 82.1603 22.7787 82.1998 22.8023C82.214 22.8109 82.2174 22.7868 82.2071 22.7487C82.1915 22.6906 82.2058 22.6793 82.2965 22.6793C82.4395 22.6793 82.5174 22.648 82.5174 22.5902C82.5174 22.5645 82.5494 22.5266 82.5888 22.5063C82.6279 22.4859 82.66 22.4462 82.66 22.4184C82.66 22.3906 82.6756 22.3677 82.6944 22.3677C82.7134 22.3677 82.7198 22.3444 82.7085 22.3158C82.6972 22.2871 82.7057 22.2638 82.7275 22.2638C82.7491 22.2638 82.7669 22.2474 82.7669 22.2271C82.7669 22.2069 82.7549 22.1978 82.7401 22.2065C82.7254 22.2154 82.7213 19.5688 82.7312 16.3254C82.741 13.0818 82.7359 10.436 82.72 10.4456C82.704 10.4551 82.6959 10.4352 82.7021 10.4013C82.7094 10.3623 82.6858 10.3323 82.6384 10.3199C82.5954 10.3087 82.5672 10.2765 82.5721 10.2443C82.577 10.2135 82.567 10.1668 82.5499 10.1404C82.5325 10.114 82.5182 10.1082 82.518 10.1271Z" fill="white"/>
<path fill-rule="evenodd" clip-rule="evenodd" d="M82.6237 2.56663C82.6532 2.59218 82.6981 2.63643 82.7238 2.6651C82.7631 2.70873 82.7653 2.70333 82.7377 2.63041C82.7195 2.58283 82.6746 2.53858 82.6376 2.53214C82.5788 2.52175 82.5771 2.52611 82.6237 2.56663ZM79.5808 2.92751C79.5485 3.00957 79.5545 3.04593 79.6007 3.04593C79.6236 3.04593 79.6319 3.03575 79.6193 3.02349C79.6065 3.01103 79.6304 2.97217 79.6723 2.93686C79.7476 2.87328 79.7478 2.87286 79.6753 2.87286C79.6353 2.87286 79.5928 2.89738 79.5808 2.92751ZM73.2609 3.72822C73.2076 3.73819 73.1807 3.7681 73.1807 3.81672C73.1807 3.87905 73.1873 3.88258 73.2252 3.84041C73.2498 3.81277 73.293 3.77101 73.3214 3.74712C73.3498 3.72323 73.3659 3.70598 73.3571 3.70848C73.3481 3.71118 73.3049 3.72011 73.2609 3.72822ZM72.0048 3.90564C72.0048 3.92143 72.0529 3.92746 72.1117 3.91894C72.1705 3.91063 72.2186 3.89775 72.2186 3.89027C72.2186 3.883 72.1705 3.87697 72.1117 3.87697C72.0529 3.87697 72.0048 3.88985 72.0048 3.90564ZM70.7307 4.0731C70.7063 4.08265 70.6862 4.10572 70.6862 4.12421C70.6862 4.14291 70.7048 4.14685 70.7277 4.13314C70.7504 4.11943 70.8186 4.09678 70.8791 4.08265L70.9892 4.0571L70.8823 4.05648C70.8235 4.05585 70.7553 4.06333 70.7307 4.0731ZM69.4615 4.25073C69.4519 4.26569 69.4989 4.27172 69.5663 4.26424C69.6334 4.25655 69.6884 4.24429 69.6884 4.23681C69.6884 4.21064 69.4786 4.22352 69.4615 4.25073ZM66.7881 4.65898C66.7588 4.73274 66.7605 4.74271 66.802 4.74271C66.8216 4.74271 66.8336 4.72318 66.8287 4.69929C66.8238 4.6756 66.8398 4.66002 66.8644 4.6648C66.889 4.66958 66.9089 4.65774 66.9089 4.63883C66.9089 4.58294 66.8116 4.59915 66.7881 4.65898ZM65.5401 4.83412C65.5277 4.8655 65.5255 4.89895 65.5354 4.90829C65.5452 4.91785 65.5632 4.90019 65.5756 4.86903C65.5877 4.83786 65.6123 4.82083 65.6299 4.83142C65.6474 4.84202 65.6617 4.83412 65.6617 4.81397C65.6617 4.75538 65.5647 4.77159 65.5401 4.83412ZM60.7208 5.48857C60.7093 5.51807 60.7097 5.55173 60.7219 5.56357C60.7341 5.57541 60.7442 5.56046 60.7442 5.53012C60.7442 5.49979 60.7722 5.46779 60.8066 5.45907C60.865 5.44411 60.865 5.44286 60.8053 5.43912C60.7705 5.43705 60.7324 5.45928 60.7208 5.48857ZM2.79033 6.32397C2.77729 6.33665 2.7666 10.8401 2.7666 16.3314V26.3157L4.43259 26.3068L6.09858 26.2979L6.10799 25.4408L6.11761 24.5838H6.20612C6.28288 24.5838 6.29443 24.5992 6.29443 24.7021C6.29443 24.8641 6.32586 24.93 6.40283 24.93C6.44302 24.93 6.4721 24.9597 6.47916 25.0079C6.48621 25.0573 6.51914 25.0897 6.56853 25.0966C6.61706 25.1034 6.65063 25.1361 6.65747 25.1832C6.66453 25.2304 6.6981 25.263 6.74663 25.2699C6.79516 25.2765 6.82873 25.3091 6.83579 25.3563C6.84263 25.4032 6.8762 25.4363 6.92366 25.4427C6.97049 25.4492 7.00897 25.4866 7.02244 25.5381C7.04147 25.6118 7.06435 25.6226 7.20396 25.6226C7.35042 25.6226 7.36346 25.6297 7.36346 25.7091C7.36346 25.7776 7.38142 25.7957 7.45006 25.7957C7.51292 25.7957 7.53986 25.8173 7.54819 25.8736C7.55782 25.9399 7.58433 25.9532 7.72651 25.9619C7.86741 25.9708 7.89542 25.9844 7.90483 26.0485C7.91402 26.1127 7.94203 26.1263 8.08164 26.135C8.22383 26.1439 8.25077 26.1576 8.26958 26.2303C8.29011 26.3099 8.30614 26.3151 8.5362 26.3151C8.76775 26.3151 8.78251 26.3199 8.80346 26.4017L8.82591 26.4882H9.51758C10.2077 26.4882 10.2095 26.4884 10.2208 26.5661C10.2315 26.6402 10.2473 26.644 10.5528 26.644C10.8513 26.644 10.8759 26.6386 10.9088 26.5661C10.9432 26.4898 10.9561 26.4882 11.5406 26.4882H12.1371L12.1592 26.4032C12.1797 26.3238 12.1989 26.3174 12.436 26.3078C12.6695 26.2987 12.6918 26.2912 12.7022 26.22C12.7127 26.1483 12.7324 26.142 12.9436 26.142C13.1564 26.142 13.1763 26.1354 13.2077 26.0554C13.2361 25.9827 13.2646 25.9688 13.3858 25.9688C13.507 25.9688 13.5354 25.9548 13.5639 25.8823C13.5878 25.8215 13.6246 25.7957 13.6879 25.7957C13.7599 25.7957 13.7777 25.7787 13.7777 25.7091C13.7777 25.6297 13.7909 25.6226 13.9374 25.6226C14.0781 25.6226 14.0997 25.6123 14.1196 25.536C14.1356 25.4739 14.166 25.4494 14.2271 25.4494C14.2942 25.4494 14.3122 25.4311 14.3122 25.3629C14.3122 25.2935 14.3302 25.2763 14.4014 25.2763C14.4726 25.2763 14.4905 25.2591 14.4905 25.1897C14.4905 25.1118 14.5046 25.1032 14.6338 25.1032C14.7542 25.1032 14.7828 25.0891 14.8112 25.0166C14.8298 24.969 14.8698 24.93 14.9002 24.93C14.9305 24.93 14.9707 24.8911 14.9893 24.8435C15.0079 24.796 15.0481 24.7569 15.0785 24.7569C15.1399 24.7569 15.2031 24.6241 15.2031 24.4949C15.2031 24.428 15.2215 24.4106 15.2923 24.4106C15.3635 24.4106 15.3812 24.3933 15.3812 24.3241C15.3812 24.2547 15.3992 24.2375 15.4704 24.2375C15.5416 24.2375 15.5596 24.2203 15.5596 24.1509C15.5596 24.0892 15.5788 24.0644 15.6269 24.0644C15.7062 24.0644 15.7377 23.9996 15.7377 23.8365C15.7377 23.7333 15.749 23.7181 15.8268 23.7181C15.898 23.7181 15.9158 23.7009 15.9158 23.6315C15.9158 23.577 15.9361 23.545 15.9701 23.545C16.031 23.545 16.0941 23.4114 16.0941 23.283C16.0941 23.2236 16.1138 23.1987 16.1608 23.1987C16.236 23.1987 16.2722 23.0794 16.2722 22.8308C16.2722 22.6924 16.2799 22.6793 16.3613 22.6793C16.443 22.6793 16.4503 22.6666 16.4503 22.5235C16.4503 22.4377 16.4653 22.3677 16.4834 22.3677C16.5773 22.3677 16.6286 22.2509 16.6286 22.0363C16.6286 21.8416 16.6369 21.8136 16.6953 21.8136C16.7819 21.8136 16.8067 21.6926 16.8067 21.2726C16.8067 20.9711 16.8118 20.948 16.8779 20.948C16.9902 20.948 16.9902 17.3854 16.8779 17.3569C16.8135 17.3405 16.8067 17.3095 16.8067 17.0355C16.8067 16.6366 16.7808 16.5157 16.6953 16.5157C16.6369 16.5157 16.6286 16.4876 16.6286 16.2932C16.6286 16.0785 16.5773 15.9618 16.4834 15.9618C16.4653 15.9618 16.4503 15.9013 16.4503 15.8276C16.4503 15.6021 16.4122 15.4769 16.3436 15.4769C16.2959 15.4769 16.2758 15.4368 16.2576 15.3038C16.239 15.1673 16.2202 15.1307 16.1687 15.1307C16.117 15.1307 16.0981 15.0942 16.0795 14.9575C16.0603 14.8162 16.043 14.7844 15.9859 14.7844C15.935 14.7844 15.9158 14.7607 15.9158 14.6978C15.9158 14.6298 15.8978 14.6113 15.8313 14.6113C15.7569 14.6113 15.7441 14.5908 15.7231 14.4381C15.7043 14.2993 15.6861 14.265 15.632 14.265C15.5891 14.265 15.5602 14.2365 15.5531 14.1871C15.5457 14.137 15.513 14.1052 15.4614 14.0982C15.4035 14.0901 15.3812 14.0639 15.3812 14.0028C15.3812 13.9361 15.3629 13.9187 15.2923 13.9187C15.2209 13.9187 15.2031 13.9014 15.2031 13.8322C15.2031 13.7628 15.1854 13.7456 15.114 13.7456C15.0428 13.7456 15.025 13.7284 15.025 13.659C15.025 13.5898 15.0071 13.5725 14.9359 13.5725C14.8647 13.5725 14.8467 13.5551 14.8467 13.4859C14.8467 13.4173 14.8288 13.3993 14.7601 13.3993C14.6975 13.3993 14.6703 13.3779 14.6622 13.3213C14.6552 13.2725 14.6222 13.2395 14.5739 13.2328C14.5273 13.2264 14.4886 13.1892 14.4753 13.1377C14.4561 13.0637 14.4334 13.0531 14.2938 13.0531C14.1472 13.0531 14.1341 13.0459 14.1341 12.9665C14.1341 12.8971 14.1164 12.8799 14.0441 12.8799C13.981 12.8799 13.944 12.8541 13.9203 12.7934C13.8919 12.7207 13.8632 12.7068 13.7422 12.7068C13.621 12.7068 13.5923 12.6929 13.5639 12.6202C13.5327 12.5402 13.5126 12.5337 13.3 12.5337C13.0886 12.5337 13.0691 12.5273 13.0587 12.4558C13.0482 12.3843 13.0259 12.3771 12.7925 12.3677C12.5549 12.3584 12.5361 12.3517 12.5154 12.2722L12.4933 12.1866L11.0063 12.1957L9.5195 12.2046L9.50795 12.2825C9.49705 12.3571 9.48187 12.3605 9.16137 12.3605C8.83318 12.3605 8.82548 12.3623 8.80346 12.4471C8.78357 12.5246 8.76305 12.5337 8.60697 12.5337C8.44469 12.5337 8.4325 12.5398 8.4325 12.6202C8.4325 12.701 8.42074 12.7068 8.2544 12.7068C8.08913 12.7068 8.0763 12.713 8.0763 12.7916C8.0763 12.8678 8.05984 12.8772 7.90696 12.8867C7.76243 12.8956 7.73613 12.9087 7.7263 12.9752C7.71817 13.0315 7.69102 13.0531 7.62837 13.0531C7.55974 13.0531 7.54178 13.071 7.54178 13.1396C7.54178 13.2177 7.52745 13.2262 7.39831 13.2262C7.27815 13.2262 7.24929 13.2401 7.22107 13.3128C7.20247 13.3604 7.16227 13.3993 7.13191 13.3993C7.10155 13.3993 7.06135 13.4383 7.04275 13.4859C7.02415 13.5335 6.98417 13.5725 6.95381 13.5725C6.92345 13.5725 6.88325 13.6114 6.86465 13.659C6.84605 13.7067 6.80585 13.7456 6.77528 13.7456C6.74471 13.7456 6.70536 13.7807 6.68762 13.8235C6.66816 13.8707 6.65448 12.4035 6.6532 10.1011L6.65084 6.30091H4.73256C3.67742 6.30091 2.80359 6.3113 2.79033 6.32397ZM40.8126 6.32397C40.7995 6.33665 40.7889 7.9337 40.7889 9.87315V13.3993H40.6997C40.6285 13.3993 40.6105 13.382 40.6105 13.3128C40.6105 13.2434 40.5928 13.2262 40.5216 13.2262C40.4502 13.2262 40.4324 13.209 40.4324 13.1396C40.4324 13.071 40.4145 13.0531 40.3458 13.0531C40.2832 13.0531 40.256 13.0315 40.2479 12.9752C40.2381 12.9087 40.2116 12.8956 40.0673 12.8867C39.9144 12.8772 39.8979 12.8678 39.8979 12.7916C39.8979 12.713 39.8849 12.7068 39.7198 12.7068C39.5535 12.7068 39.5415 12.701 39.5415 12.6202C39.5415 12.5393 39.5297 12.5337 39.3634 12.5337C39.1971 12.5337 39.1853 12.5279 39.1853 12.4471C39.1853 12.3625 39.1791 12.3605 38.9204 12.3605C38.673 12.3605 38.6548 12.3555 38.6444 12.2825L38.6328 12.2046H37.065H35.4971L35.4856 12.2825C35.4751 12.3555 35.4569 12.3605 35.2096 12.3605C34.9521 12.3605 34.9446 12.3629 34.9446 12.4456C34.9446 12.5271 34.9342 12.531 34.6864 12.5408C34.4512 12.5501 34.427 12.5578 34.417 12.627C34.4076 12.6912 34.3795 12.7047 34.2386 12.7136C34.0965 12.7226 34.07 12.7357 34.0603 12.8019C34.052 12.8585 34.0251 12.8799 33.9622 12.8799C33.8936 12.8799 33.8756 12.8979 33.8756 12.9665C33.8756 13.0473 33.8638 13.0531 33.6975 13.0531C33.5312 13.0531 33.5194 13.0587 33.5194 13.1396C33.5194 13.209 33.5014 13.2262 33.4302 13.2262C33.359 13.2262 33.3411 13.2434 33.3411 13.3128C33.3411 13.382 33.3233 13.3993 33.2521 13.3993C33.1807 13.3993 33.163 13.4167 33.163 13.4859C33.163 13.5653 33.1499 13.5725 33.0033 13.5725C32.8628 13.5725 32.841 13.5827 32.8213 13.659C32.8074 13.7128 32.7736 13.7456 32.7322 13.7456C32.6907 13.7456 32.6569 13.7784 32.643 13.8322C32.6297 13.884 32.5953 13.9187 32.5571 13.9187C32.4816 13.9187 32.4504 13.9856 32.4504 14.1466C32.4504 14.2498 32.4388 14.265 32.3612 14.265C32.29 14.265 32.272 14.2822 32.272 14.3516C32.272 14.4208 32.2543 14.4381 32.1831 14.4381C32.1117 14.4381 32.0939 14.4555 32.0939 14.5247C32.0939 14.5939 32.0762 14.6113 32.0048 14.6113C31.9233 14.6113 31.9158 14.6242 31.9158 14.7647C31.9158 14.8974 31.9049 14.9197 31.8357 14.9292C31.7782 14.9371 31.7523 14.9672 31.7442 15.0354C31.7365 15.1006 31.7123 15.1307 31.6678 15.1307C31.5909 15.1307 31.5594 15.1966 31.5594 15.3586C31.5594 15.4515 31.5451 15.4769 31.4919 15.4769C31.4057 15.4769 31.3813 15.5419 31.3813 15.7717C31.3813 15.9375 31.3728 15.958 31.3011 15.968C31.2329 15.9774 31.2193 16.0031 31.2103 16.1402C31.2011 16.2782 31.187 16.3044 31.1121 16.3227C31.0273 16.3434 31.0249 16.3528 31.0249 16.6698C31.0249 16.9815 31.0215 16.9962 30.9447 17.0068C30.8684 17.0172 30.8641 17.0347 30.8545 17.3704C30.8449 17.7047 30.8402 17.7238 30.7653 17.734L30.6865 17.745L30.677 19.4322L30.6679 21.1196L30.7572 21.1415C30.8466 21.1633 30.8468 21.1643 30.8468 21.5744C30.8468 21.9839 30.847 21.9856 30.9357 22.0072C31.02 22.0278 31.0249 22.0419 31.0249 22.2669C31.0249 22.4919 31.0298 22.506 31.1141 22.5266C31.1951 22.5463 31.203 22.5648 31.203 22.7321C31.203 22.9594 31.2276 23.0256 31.3118 23.0256C31.3646 23.0256 31.3794 23.0572 31.3882 23.19C31.3974 23.3292 31.4113 23.3562 31.4773 23.3653C31.5415 23.3743 31.5575 23.4021 31.5665 23.5211C31.5748 23.6325 31.5958 23.6741 31.6573 23.7004C31.7065 23.7212 31.7375 23.7648 31.7375 23.8128C31.7375 23.8733 31.7578 23.8912 31.8267 23.8912C31.9099 23.8912 31.9158 23.9028 31.9158 24.0644C31.9158 24.2259 31.9216 24.2375 32.0048 24.2375C32.0762 24.2375 32.0939 24.2547 32.0939 24.3241C32.0939 24.3933 32.1117 24.4106 32.1831 24.4106C32.2543 24.4106 32.272 24.428 32.272 24.4972C32.272 24.5664 32.29 24.5838 32.3612 24.5838C32.4388 24.5838 32.4504 24.599 32.4504 24.7021C32.4504 24.8633 32.4816 24.93 32.5571 24.93C32.5953 24.93 32.6297 24.9647 32.643 25.0166C32.6569 25.0704 32.6907 25.1032 32.7322 25.1032C32.7736 25.1032 32.8074 25.1359 32.8213 25.1897C32.841 25.2659 32.8628 25.2763 33.0033 25.2763C33.1499 25.2763 33.163 25.2834 33.163 25.3629C33.163 25.4321 33.1807 25.4494 33.2521 25.4494C33.3233 25.4494 33.3411 25.4668 33.3411 25.536C33.3411 25.6046 33.359 25.6226 33.4277 25.6226C33.4905 25.6226 33.5175 25.644 33.5258 25.7006C33.5354 25.767 33.562 25.7799 33.7065 25.7888C33.8591 25.7984 33.8756 25.8078 33.8756 25.8842C33.8756 25.9627 33.8886 25.9688 34.0539 25.9688C34.2201 25.9688 34.232 25.9746 34.232 26.0554C34.232 26.1362 34.244 26.142 34.4101 26.142C34.5765 26.142 34.5884 26.1477 34.5884 26.2285C34.5884 26.313 34.5944 26.3151 34.8531 26.3151C35.1005 26.3151 35.1187 26.3203 35.1294 26.393C35.1405 26.4699 35.1486 26.4711 35.753 26.4805C36.3556 26.4896 36.3656 26.4911 36.3767 26.5669C36.3872 26.6394 36.4075 26.6446 36.7175 26.654L37.0472 26.6639V26.5769V26.4896L37.7509 26.4803C38.4462 26.4711 38.4549 26.4701 38.4658 26.3945C38.4761 26.3249 38.5 26.3172 38.7331 26.3078C38.9679 26.2987 38.9901 26.2912 39.0006 26.22C39.0106 26.1512 39.0326 26.142 39.1877 26.142C39.3514 26.142 39.3634 26.136 39.3634 26.0554C39.3634 25.9746 39.3754 25.9688 39.5415 25.9688C39.7068 25.9688 39.7198 25.9627 39.7198 25.8842C39.7198 25.8078 39.7363 25.7984 39.8889 25.7888C40.0335 25.7799 40.06 25.767 40.0696 25.7006C40.0779 25.644 40.1049 25.6226 40.1677 25.6226C40.2364 25.6226 40.2543 25.6046 40.2543 25.536C40.2543 25.4668 40.2721 25.4494 40.3433 25.4494C40.4147 25.4494 40.4324 25.4321 40.4324 25.3629C40.4324 25.2935 40.4502 25.2763 40.5216 25.2763C40.5928 25.2763 40.6105 25.2591 40.6105 25.1897C40.6105 25.1205 40.6285 25.1032 40.6997 25.1032C40.7709 25.1032 40.7889 25.0858 40.7889 25.0166C40.7889 24.9474 40.8066 24.93 40.8778 24.93C40.9492 24.93 40.967 24.9127 40.967 24.8435C40.967 24.7245 41.1344 24.7166 41.1515 24.8348C41.1587 24.8847 41.1917 24.9167 41.2423 24.9237C41.321 24.9345 41.3219 24.941 41.3315 25.6162L41.3411 26.2979L43.0653 26.3068C44.3088 26.3132 44.8031 26.3049 44.8382 26.2767C44.8739 26.2478 44.8867 26.1366 44.8867 25.8607V25.4841H44.7978H44.7086V15.8924V6.30091H42.7723C41.7076 6.30091 40.8256 6.3113 40.8126 6.32397ZM82.6806 7.56472C82.6329 7.63536 82.6314 7.65136 82.6723 7.65136C82.6998 7.65136 82.73 7.6123 82.7394 7.56472C82.7488 7.51714 82.7524 7.47808 82.7477 7.47808C82.7428 7.47808 82.7127 7.51714 82.6806 7.56472ZM76.8999 10.1607C76.889 10.1885 76.8881 10.2313 76.8982 10.2558C76.9084 10.2802 76.9178 10.2664 76.9196 10.2253C76.9211 10.184 76.9422 10.1424 76.9668 10.1326C77.0017 10.1191 77.0014 10.1146 76.9657 10.1125C76.9405 10.111 76.911 10.1326 76.8999 10.1607ZM82.5673 10.1358C82.582 10.1501 82.6128 10.1624 82.6357 10.1634C82.6586 10.1642 82.6733 10.1835 82.6684 10.2066C82.6635 10.2295 82.6755 10.2484 82.6951 10.2484C82.7526 10.2484 82.736 10.1538 82.6744 10.1308C82.5961 10.1017 82.5352 10.1046 82.5673 10.1358ZM50.0775 12.2105C50.0645 12.2231 50.0538 12.2622 50.0538 12.2971C50.0538 12.353 50.0219 12.3605 49.7865 12.3605C49.5252 12.3605 49.5193 12.3625 49.5193 12.4471C49.5193 12.5312 49.512 12.5337 49.2706 12.5337C49.0363 12.5337 49.0205 12.5385 48.9999 12.6185C48.9811 12.6912 48.9542 12.7047 48.812 12.7136C48.6724 12.7224 48.6444 12.7361 48.6352 12.8001C48.626 12.8624 48.5971 12.878 48.4748 12.8867C48.36 12.8948 48.3175 12.9154 48.2903 12.9752C48.2687 13.023 48.224 13.0531 48.1744 13.0531C48.1128 13.0531 48.0938 13.0729 48.0938 13.1377C48.0938 13.2125 48.0763 13.2235 47.9424 13.2328C47.8263 13.2409 47.7829 13.2613 47.7564 13.3201C47.7374 13.3621 47.6893 13.4011 47.6495 13.4065C47.6057 13.4128 47.5728 13.4475 47.5657 13.4946C47.5576 13.5509 47.5304 13.5725 47.4678 13.5725C47.3991 13.5725 47.3812 13.5904 47.3812 13.659C47.3812 13.7284 47.3634 13.7456 47.292 13.7456C47.2208 13.7456 47.2031 13.7628 47.2031 13.8322C47.2031 13.9014 47.1851 13.9187 47.1139 13.9187C47.0427 13.9187 47.0248 13.9361 47.0248 14.0053C47.0248 14.0745 47.007 14.0919 46.9358 14.0919C46.8644 14.0919 46.8467 14.1092 46.8467 14.1784C46.8467 14.2403 46.8274 14.265 46.7791 14.265C46.7 14.265 46.6686 14.3298 46.6686 14.4929C46.6686 14.5962 46.657 14.6113 46.5794 14.6113C46.5082 14.6113 46.4902 14.6286 46.4902 14.6978C46.4902 14.7672 46.4725 14.7844 46.4013 14.7844C46.3196 14.7844 46.3121 14.7973 46.3121 14.9377C46.3121 15.0705 46.3012 15.0927 46.232 15.1023C46.1745 15.1102 46.1486 15.1403 46.1405 15.2086C46.1328 15.2737 46.1086 15.3038 46.0641 15.3038C45.9872 15.3038 45.9557 15.3697 45.9557 15.5317C45.9557 15.6248 45.9414 15.6501 45.8884 15.6501C45.802 15.6501 45.7776 15.715 45.7776 15.9447C45.7776 16.1105 45.7693 16.1311 45.6974 16.1411C45.6275 16.1506 45.616 16.1756 45.6066 16.3339C45.5976 16.4837 45.5841 16.5157 45.53 16.5157C45.4402 16.5157 45.4212 16.5815 45.4212 16.8957C45.4212 17.1554 45.4178 17.167 45.3323 17.1878L45.2431 17.2096V17.7072V18.205L45.1535 18.2268L45.0639 18.2486L45.0733 19.3472L45.0828 20.4459L45.1621 20.4569C45.2393 20.4675 45.2414 20.4804 45.251 20.9763C45.2606 21.4739 45.2626 21.4849 45.341 21.4957C45.4178 21.5063 45.4212 21.521 45.4212 21.8327C45.4212 22.1514 45.4231 22.1591 45.5104 22.1803C45.5914 22.2 45.5995 22.2187 45.5995 22.3859C45.5995 22.6143 45.6239 22.6793 45.7101 22.6793C45.7633 22.6793 45.7776 22.7046 45.7776 22.7977C45.7776 22.9598 45.8091 23.0256 45.8862 23.0256C45.9378 23.0256 45.954 23.057 45.9626 23.1727C45.9711 23.2864 45.9919 23.3277 46.0539 23.3541C46.103 23.3751 46.134 23.4185 46.134 23.4667C46.134 23.5265 46.1544 23.545 46.2211 23.545C46.2997 23.545 46.3094 23.561 46.3192 23.7094C46.3284 23.8498 46.3417 23.8756 46.4101 23.8849C46.4682 23.893 46.4902 23.9192 46.4902 23.9803C46.4902 24.047 46.5089 24.0644 46.5794 24.0644C46.6506 24.0644 46.6686 24.0817 46.6686 24.1509C46.6686 24.2203 46.6863 24.2375 46.7575 24.2375C46.8289 24.2375 46.8467 24.2547 46.8467 24.3241C46.8467 24.3933 46.8644 24.4106 46.9358 24.4106C47.0151 24.4106 47.0248 24.4249 47.0248 24.5423C47.0248 24.7081 47.075 24.7569 47.2458 24.7569C47.3664 24.7569 47.3812 24.7663 47.3812 24.8435C47.3812 24.9127 47.3989 24.93 47.4703 24.93C47.5415 24.93 47.5593 24.9474 47.5593 25.0166C47.5593 25.0858 47.5772 25.1032 47.6484 25.1032C47.7196 25.1032 47.7376 25.1205 47.7376 25.1897C47.7376 25.2705 47.7494 25.2763 47.9157 25.2763C48.082 25.2763 48.0938 25.2821 48.0938 25.3629C48.0938 25.4296 48.1122 25.4494 48.1744 25.4494C48.224 25.4494 48.2687 25.4795 48.2903 25.5273C48.317 25.5865 48.3602 25.6077 48.4693 25.6156C48.5772 25.6233 48.6215 25.6447 48.6474 25.702C48.6773 25.7683 48.7141 25.7797 48.9223 25.7886C49.1511 25.7984 49.1628 25.803 49.1628 25.8838C49.1628 25.9665 49.1703 25.9688 49.4263 25.9688C49.6775 25.9688 49.6907 25.9729 49.7121 26.0554L49.7344 26.142H51.1235H52.5126V26.0554V25.9688H52.869H53.2252V25.8823C53.2252 25.8015 53.2372 25.7957 53.4035 25.7957C53.5696 25.7957 53.5816 25.7899 53.5816 25.7091C53.5816 25.6283 53.5936 25.6226 53.7597 25.6226C53.925 25.6226 53.938 25.6164 53.938 25.5379C53.938 25.4614 53.9545 25.4523 54.1071 25.4427C54.2517 25.4336 54.2782 25.4207 54.2878 25.3542C54.2962 25.2979 54.3231 25.2763 54.3859 25.2763C54.4546 25.2763 54.4725 25.2582 54.4725 25.1897C54.4725 25.1205 54.4903 25.1032 54.5615 25.1032C54.6329 25.1032 54.6506 25.0858 54.6506 25.0166C54.6506 24.9474 54.6684 24.93 54.7398 24.93C54.811 24.93 54.8287 24.9127 54.8287 24.8435C54.8287 24.7741 54.8467 24.7569 54.9179 24.7569C54.9891 24.7569 55.0071 24.7397 55.0071 24.6703C55.0071 24.6017 55.025 24.5838 55.0936 24.5838C55.161 24.5838 55.1837 24.5624 55.1952 24.4885C55.2033 24.4361 55.2125 24.6777 55.2155 25.0253L55.2209 25.6571H55.1317H55.0426V26.1568C55.0426 26.6488 55.0413 26.6567 54.9624 26.6677C54.894 26.677 54.8807 26.7028 54.8713 26.8447C54.8621 26.9841 54.8465 27.0161 54.7734 27.0431C54.7009 27.0699 54.6863 27.0986 54.6863 27.2153C54.6863 27.3331 54.672 27.361 54.5972 27.3886C54.5228 27.416 54.508 27.4441 54.508 27.5583C54.508 27.6741 54.4956 27.6971 54.4279 27.7065C54.3776 27.7133 54.3436 27.7453 54.3368 27.7921C54.3301 27.8376 54.2919 27.8752 54.2388 27.8881C54.1826 27.9018 54.1518 27.934 54.1518 27.9786C54.1518 28.021 54.1168 28.0611 54.0627 28.0811C54.0137 28.0991 53.9735 28.1368 53.9735 28.1644C53.9735 28.192 53.9376 28.2196 53.8933 28.2259C53.8427 28.2327 53.8091 28.2647 53.802 28.3127C53.7952 28.3599 53.7616 28.3925 53.7131 28.3992C53.6637 28.406 53.6308 28.4386 53.6237 28.4879C53.6145 28.551 53.5895 28.5658 53.4929 28.5658C53.3285 28.5658 53.2609 28.5967 53.2609 28.6715C53.2609 28.7228 53.2282 28.7372 53.0916 28.7457C52.9472 28.7548 52.9207 28.7677 52.9109 28.8342C52.9004 28.9069 52.8822 28.9121 52.6372 28.9121C52.3443 28.9121 52.1919 28.9532 52.1919 29.0324C52.1919 29.0785 52.0664 29.0852 51.212 29.0852C50.3751 29.0852 50.2319 29.0779 50.2319 29.0345C50.2319 28.9439 50.1008 28.9121 49.726 28.9121C49.3786 28.9121 49.3561 28.9077 49.3228 28.8342C49.2922 28.7663 49.2571 28.755 49.0472 28.7461C48.868 28.7384 48.8066 28.7233 48.8066 28.6867C48.8066 28.6096 48.6858 28.5658 48.4729 28.5658C48.2969 28.5658 48.2758 28.5579 48.2657 28.4879C48.2561 28.422 48.2291 28.4085 48.0927 28.3998C47.9662 28.3917 47.9238 28.373 47.8967 28.3131C47.8708 28.2558 47.8265 28.2344 47.7186 28.2267C47.6104 28.2188 47.5663 28.1974 47.5403 28.1401C47.5137 28.0809 47.4703 28.0613 47.3485 28.0528C47.0466 28.0318 47.0248 28.0499 47.0248 28.3204C47.0248 28.5454 47.0201 28.5595 46.9358 28.5801C46.8507 28.6009 46.8467 28.6136 46.8467 28.8585C46.8467 29.0983 46.8413 29.1157 46.7665 29.1261C46.6908 29.1365 46.6857 29.1552 46.676 29.4552C46.6664 29.7535 46.6611 29.7739 46.5871 29.7843C46.5151 29.7941 46.5071 29.8171 46.4977 30.044C46.4883 30.2705 46.4802 30.2937 46.4086 30.3037C46.3344 30.3139 46.3295 30.3338 46.3198 30.6521L46.3096 30.9897H46.3975C46.4614 30.9897 46.4885 31.0109 46.4967 31.0676C46.5065 31.1339 46.533 31.1472 46.6752 31.1559C46.8161 31.1649 46.8439 31.1784 46.8533 31.2426C46.8627 31.3068 46.8907 31.3203 47.0316 31.3292C47.1723 31.3379 47.2003 31.3514 47.2097 31.4156C47.2198 31.4848 47.2441 31.4927 47.477 31.5018C47.71 31.5112 47.734 31.5189 47.7442 31.5885C47.7543 31.6581 47.7782 31.6658 48.0136 31.6751C48.2375 31.6838 48.2721 31.6938 48.2721 31.7493C48.2721 31.8413 48.3382 31.8555 48.7739 31.8555C49.1378 31.8555 49.1628 31.8598 49.1628 31.924C49.1628 32.03 49.1879 32.031 51.3544 32.0208L53.3855 32.0113L53.3971 31.9334C53.408 31.8586 53.4225 31.8555 53.7599 31.8555C54.1362 31.8555 54.2942 31.8197 54.2942 31.735C54.2942 31.6936 54.34 31.6822 54.5053 31.6822C54.762 31.6822 54.8287 31.66 54.8287 31.5748C54.8287 31.5193 54.8559 31.5091 55.0047 31.5091C55.2174 31.5091 55.3633 31.4603 55.3633 31.3888C55.3633 31.356 55.3962 31.3361 55.4501 31.3361C55.5824 31.3361 55.7197 31.2748 55.7197 31.2156C55.7197 31.1825 55.7526 31.1628 55.8088 31.1628C55.8796 31.1628 55.8978 31.1453 55.8978 31.0782C55.8978 31.0018 55.9142 30.9924 56.0671 30.9829C56.2117 30.9739 56.2379 30.9611 56.2478 30.8946C56.2559 30.8387 56.2831 30.8167 56.3434 30.8167C56.4704 30.8167 56.6106 30.7554 56.6106 30.7001C56.6106 30.6731 56.6506 30.6411 56.6996 30.6293C56.7558 30.6155 56.7887 30.5831 56.7887 30.5414C56.7887 30.499 56.8176 30.4711 56.8689 30.4641C56.9204 30.457 56.9531 30.4252 56.9604 30.3752C56.9687 30.3187 56.9957 30.2973 57.0585 30.2973C57.1272 30.2973 57.1451 30.2792 57.1451 30.2106C57.1451 30.1414 57.1629 30.124 57.2341 30.124C57.3029 30.124 57.3232 30.1061 57.3232 30.0457C57.3232 29.9977 57.3542 29.954 57.4034 29.9333C57.4654 29.9067 57.4862 29.8655 57.4945 29.7519C57.5043 29.6218 57.5157 29.6046 57.5926 29.6046C57.6611 29.6046 57.6796 29.5867 57.6796 29.5204C57.6796 29.4596 57.7017 29.4332 57.7598 29.4253C57.8282 29.4157 57.8415 29.3902 57.8507 29.2497C57.8605 29.1012 57.8702 29.0852 57.9488 29.0852C58.0297 29.0852 58.0359 29.0727 58.0359 28.9121C58.0359 28.7505 58.0418 28.739 58.125 28.739C58.208 28.739 58.2142 28.7272 58.2142 28.5683C58.2142 28.4176 58.2236 28.3962 58.2943 28.3865C58.3677 28.3763 58.3754 28.3547 58.3848 28.1266C58.3944 27.8999 58.4023 27.8768 58.4739 27.8669C58.5481 27.8567 58.5533 27.8367 58.5629 27.5185C58.5729 27.1854 58.5742 27.1808 58.6608 27.1808H58.7487V26.6614V26.142H58.8376H58.9268V19.8398V13.5378H59.0168H59.1066L59.097 12.9578L59.0871 12.3779L57.4212 12.3688L55.7554 12.3598V12.4467C55.7554 12.5163 55.7376 12.5337 55.6662 12.5337H55.5771L55.5717 13.2349C55.5689 13.6205 55.5597 13.8931 55.5516 13.8408C55.5401 13.767 55.5172 13.7456 55.4501 13.7456C55.3812 13.7456 55.3633 13.7277 55.3633 13.659C55.3633 13.5898 55.3455 13.5725 55.2743 13.5725C55.2029 13.5725 55.1852 13.5551 55.1852 13.4859C55.1852 13.4167 55.1674 13.3993 55.096 13.3993C55.0248 13.3993 55.0071 13.382 55.0071 13.3128C55.0071 13.2434 54.9891 13.2262 54.9179 13.2262C54.8467 13.2262 54.8287 13.209 54.8287 13.1396C54.8287 13.0704 54.811 13.0531 54.7398 13.0531C54.6684 13.0531 54.6506 13.0357 54.6506 12.9665C54.6506 12.8857 54.6387 12.8799 54.4725 12.8799C54.3062 12.8799 54.2942 12.8742 54.2942 12.7934C54.2942 12.7249 54.2763 12.7068 54.2076 12.7068C54.145 12.7068 54.1178 12.6852 54.1097 12.6289C54.0992 12.5574 54.077 12.5501 53.8399 12.5408C53.5923 12.531 53.5816 12.5271 53.5816 12.4456C53.5816 12.3627 53.5743 12.3605 53.3143 12.3605C53.0531 12.3605 53.0471 12.3586 53.0471 12.274V12.1874H51.5742C50.764 12.1874 50.0906 12.1978 50.0775 12.2105ZM17.35 17.1824L17.359 22.0041L17.4383 22.0151C17.5153 22.0257 17.5178 22.0392 17.5272 22.517C17.5371 22.9968 17.539 23.0086 17.6175 23.0194C17.6923 23.0296 17.6976 23.0472 17.6976 23.2876C17.6976 23.5378 17.7 23.545 17.7851 23.545C17.8691 23.545 17.873 23.5552 17.883 23.796C17.8926 24.0245 17.9005 24.048 17.972 24.0578C18.038 24.0669 18.0519 24.0941 18.0609 24.2311C18.0701 24.3692 18.0838 24.395 18.152 24.4043C18.2099 24.4124 18.2322 24.4386 18.2322 24.4997C18.2322 24.5664 18.2505 24.5838 18.3211 24.5838C18.4043 24.5838 18.4103 24.5953 18.4103 24.7569C18.4103 24.9185 18.4162 24.93 18.4994 24.93C18.5706 24.93 18.5884 24.9474 18.5884 25.0166C18.5884 25.0858 18.6063 25.1032 18.6775 25.1032C18.7487 25.1032 18.7667 25.1205 18.7667 25.1897C18.7667 25.2591 18.7844 25.2763 18.8556 25.2763C18.927 25.2763 18.9448 25.2935 18.9448 25.3629C18.9448 25.4321 18.9625 25.4494 19.0339 25.4494C19.1051 25.4494 19.1229 25.4668 19.1229 25.536C19.1229 25.6052 19.1408 25.6226 19.212 25.6226C19.2832 25.6226 19.3012 25.6399 19.3012 25.7091C19.3012 25.7899 19.313 25.7957 19.4793 25.7957C19.6456 25.7957 19.6574 25.8015 19.6574 25.8823C19.6574 25.9515 19.6754 25.9688 19.7466 25.9688C19.8178 25.9688 19.8357 25.9862 19.8357 26.0554C19.8357 26.136 19.8477 26.142 20.0113 26.142C20.1665 26.142 20.1883 26.1512 20.1983 26.22C20.2088 26.2912 20.2313 26.2987 20.4658 26.3078C20.6991 26.3172 20.723 26.3249 20.7331 26.3945C20.7442 26.4695 20.7557 26.4711 21.3567 26.4805C21.9593 26.4896 21.9691 26.4911 21.9802 26.5669C21.9909 26.6394 22.0112 26.6446 22.3212 26.654L22.6507 26.6639V26.5761V26.4882H23.3449H24.0392L24.0612 26.4032C24.0813 26.3249 24.102 26.3174 24.3201 26.308C24.5249 26.2991 24.5619 26.2875 24.5917 26.2214C24.6188 26.1616 24.6611 26.1429 24.7877 26.135C24.9231 26.1263 24.9511 26.1123 24.9603 26.0485C24.9697 25.9844 24.9977 25.9708 25.1386 25.9619C25.2808 25.9532 25.3073 25.9399 25.3169 25.8736C25.3252 25.8173 25.3522 25.7957 25.415 25.7957C25.483 25.7957 25.5016 25.7776 25.5016 25.7111C25.5016 25.6364 25.5191 25.6253 25.653 25.616C25.7699 25.6077 25.8125 25.5875 25.8396 25.5273C25.8612 25.4795 25.9059 25.4494 25.9555 25.4494C26.0177 25.4494 26.0361 25.4296 26.0361 25.3629C26.0361 25.2935 26.0539 25.2763 26.1251 25.2763C26.1965 25.2763 26.2142 25.2591 26.2142 25.1897C26.2142 25.1205 26.232 25.1032 26.3034 25.1032C26.3746 25.1032 26.3923 25.0858 26.3923 25.0166C26.3923 24.9474 26.4103 24.93 26.4815 24.93C26.5501 24.93 26.5707 24.9121 26.5709 24.8521C26.5711 24.8032 26.6038 24.7594 26.659 24.7347L26.7468 24.695L26.7567 25.1502C26.7663 25.5902 26.7693 25.6056 26.8454 25.6162C26.92 25.6264 26.9249 25.6461 26.9346 25.9623L26.9448 26.2979H28.6196H30.2943L30.3033 19.4183C30.3093 14.9826 30.2999 12.5069 30.2774 12.4492L30.2424 12.3598L28.3264 12.369L26.4103 12.3779L26.4011 16.6763C26.3926 20.8207 26.3898 20.9752 26.3265 20.9912C26.2476 21.0114 26.2142 21.1487 26.2142 21.4543C26.2142 21.648 26.2059 21.6752 26.1467 21.6752C26.0678 21.6752 26.0361 21.7398 26.0361 21.9006C26.0361 21.9945 26.0207 22.0186 25.956 22.0276C25.8875 22.0371 25.8741 22.0629 25.8649 22.2031C25.855 22.3517 25.8454 22.3677 25.767 22.3677C25.6977 22.3677 25.6797 22.3855 25.6797 22.4543C25.6797 22.5235 25.662 22.5407 25.5906 22.5407C25.5194 22.5407 25.5016 22.5582 25.5016 22.6274C25.5016 22.6965 25.4837 22.714 25.4125 22.714C25.3413 22.714 25.3233 22.7312 25.3233 22.8004C25.3233 22.8698 25.3056 22.8871 25.2344 22.8871C25.1636 22.8871 25.1452 22.9045 25.1452 22.9718C25.1452 23.0481 25.1287 23.0574 24.9759 23.067C24.8328 23.0759 24.805 23.0892 24.7956 23.1536C24.7862 23.2178 24.7582 23.2313 24.6173 23.2402C24.4751 23.249 24.4486 23.2623 24.439 23.3285L24.4274 23.4065H23.6282H22.829V23.3198C22.829 23.239 22.817 23.2334 22.6507 23.2334C22.4846 23.2334 22.4726 23.2276 22.4726 23.1468C22.4726 23.0782 22.4546 23.0601 22.386 23.0601C22.3234 23.0601 22.2962 23.0387 22.2881 22.9822C22.2808 22.933 22.2479 22.9004 22.1987 22.8935C22.15 22.8869 22.1164 22.8542 22.1096 22.8071C22.1025 22.7591 22.0689 22.7271 22.0183 22.7202C21.9603 22.7121 21.9381 22.6859 21.9381 22.6249C21.9381 22.5588 21.9195 22.5407 21.8509 22.5407C21.7724 22.5407 21.7628 22.5247 21.7529 22.3764C21.7437 22.2359 21.7303 22.2102 21.6618 22.2008C21.5911 22.1911 21.5817 22.1697 21.5817 22.019C21.5817 21.8607 21.5755 21.8483 21.494 21.8483C21.4074 21.8483 21.4059 21.8437 21.3959 21.5106C21.3862 21.1903 21.3815 21.1724 21.3056 21.162L21.2255 21.1508V16.7556V12.3605H19.2832H17.341L17.35 17.1824ZM10.2563 15.1739C10.2672 15.2475 10.2862 15.2525 10.5973 15.2618C10.921 15.2716 10.927 15.2733 10.927 15.357C10.927 15.4363 10.9396 15.4424 11.1051 15.4424C11.2714 15.4424 11.2834 15.448 11.2834 15.5288C11.2834 15.5957 11.3018 15.6154 11.364 15.6154C11.4134 15.6154 11.4583 15.6456 11.4797 15.6934C11.5071 15.7536 11.5494 15.7738 11.6663 15.7819C11.8002 15.7914 11.8179 15.8024 11.8179 15.8772C11.8179 15.9437 11.8363 15.9618 11.905 15.9618C11.9819 15.9618 11.9933 15.9788 12.0029 16.1089C12.0112 16.2217 12.0322 16.2639 12.0927 16.2896C12.1359 16.3081 12.1761 16.3549 12.1816 16.3935C12.1878 16.4355 12.2235 16.4681 12.2703 16.4745C12.3345 16.4835 12.3505 16.5115 12.3593 16.6304C12.3676 16.7409 12.389 16.7835 12.4487 16.8088C12.5077 16.8342 12.5299 16.877 12.5378 16.9821C12.5457 17.087 12.5678 17.13 12.627 17.1552C12.6886 17.1815 12.7078 17.2227 12.7159 17.3457C12.7249 17.4776 12.7392 17.5044 12.8055 17.5135C12.8799 17.5237 12.885 17.5435 12.8945 17.8597C12.9043 18.1778 12.9088 18.1956 12.9849 18.2062L13.0651 18.2172V19.3402V20.4631H12.9759H12.887V20.8095V21.1558H12.7978C12.7153 21.1558 12.7087 21.1678 12.7087 21.3205C12.7087 21.4585 12.6956 21.4911 12.6285 21.5198C12.5678 21.5458 12.5457 21.5875 12.5378 21.6937C12.5299 21.7986 12.5077 21.8416 12.4487 21.8667C12.3886 21.8923 12.3676 21.9347 12.3593 22.0473C12.3495 22.1773 12.3381 22.1946 12.2612 22.1946C12.1934 22.1946 12.1741 22.2127 12.1741 22.2771C12.1741 22.3315 12.1489 22.366 12.1004 22.3785C12.0595 22.3886 12.0181 22.4281 12.008 22.4657C11.9977 22.5035 11.9578 22.5424 11.9188 22.5524C11.8799 22.5621 11.84 22.6012 11.8297 22.639C11.8196 22.6766 11.7794 22.7157 11.7407 22.7254C11.7018 22.7354 11.6616 22.7749 11.6512 22.8133C11.6409 22.8517 11.5979 22.8879 11.5558 22.8937C11.5079 22.9004 11.475 22.9336 11.4679 22.9822C11.4598 23.0387 11.4326 23.0601 11.37 23.0601C11.3014 23.0601 11.2834 23.0782 11.2834 23.1468C11.2834 23.2276 11.2714 23.2334 11.1051 23.2334C10.939 23.2334 10.927 23.239 10.927 23.3198C10.927 23.4058 10.9246 23.4065 10.6054 23.4065C10.2952 23.4065 10.2826 23.4096 10.2499 23.4931L10.2161 23.5795H9.68071H9.14534V23.4931C9.14534 23.4083 9.13935 23.4065 8.87808 23.4065C8.61659 23.4065 8.61082 23.4046 8.61082 23.3198C8.61082 23.239 8.59884 23.2334 8.4325 23.2334C8.26637 23.2334 8.2544 23.2276 8.2544 23.1468C8.2544 23.0799 8.23601 23.0601 8.1738 23.0601C8.12441 23.0601 8.07951 23.03 8.05791 22.9822C8.03076 22.9222 7.98821 22.902 7.87126 22.8937C7.73741 22.8844 7.71988 22.8733 7.71988 22.7986C7.71988 22.7314 7.70149 22.714 7.63072 22.714C7.55953 22.714 7.54178 22.6965 7.54178 22.6274C7.54178 22.5586 7.52382 22.5407 7.45455 22.5407C7.37586 22.5407 7.36646 22.5247 7.35662 22.3764C7.34721 22.2359 7.33396 22.2102 7.26554 22.2008C7.2076 22.1927 7.18536 22.1665 7.18536 22.1055C7.18536 22.0388 7.16676 22.0213 7.0962 22.0213C7.01303 22.0213 7.00726 22.0099 7.00726 21.8483C7.00726 21.6874 7.00106 21.6752 6.91939 21.6752C6.83322 21.6752 6.83151 21.6694 6.82146 21.3548C6.81205 21.0606 6.80457 21.0318 6.73102 21.0004L6.65084 20.9661V19.4185V17.8711L6.73102 17.8599C6.80714 17.8495 6.81163 17.8316 6.82146 17.5113C6.83151 17.1782 6.83279 17.1736 6.91939 17.1736C7.00106 17.1736 7.00726 17.1614 7.00726 17.0006C7.00726 16.8389 7.01303 16.8273 7.0962 16.8273C7.17938 16.8273 7.18536 16.8159 7.18536 16.6542C7.18536 16.4926 7.19135 16.4812 7.27452 16.4812C7.34572 16.4812 7.36346 16.4637 7.36346 16.3945C7.36346 16.3254 7.38142 16.3079 7.45262 16.3079C7.52318 16.3079 7.54178 16.2905 7.54178 16.2238C7.54178 16.1629 7.5638 16.1365 7.62196 16.1286C7.67263 16.1215 7.7062 16.0898 7.71325 16.0418C7.7201 15.9946 7.75366 15.962 7.8022 15.9551C7.85159 15.9483 7.88451 15.9159 7.89157 15.8664C7.89991 15.8101 7.92685 15.7885 7.98971 15.7885C8.0577 15.7885 8.0763 15.7704 8.0763 15.7039C8.0763 15.6292 8.09383 15.6181 8.22767 15.6088C8.34356 15.6007 8.38717 15.5801 8.41347 15.5217C8.43956 15.4644 8.4836 15.443 8.59179 15.4353C8.69998 15.4276 8.74402 15.406 8.7701 15.3485C8.79982 15.2826 8.8366 15.2706 9.03736 15.2618C9.2392 15.2531 9.27469 15.2415 9.30526 15.1739C9.33905 15.0989 9.35786 15.096 9.79275 15.096C10.2347 15.096 10.2452 15.0979 10.2563 15.1739ZM38.5082 15.1827C38.5082 15.2672 38.5142 15.2691 38.7754 15.2691C39.0367 15.2691 39.0427 15.2712 39.0427 15.3557C39.0427 15.4351 39.0559 15.4424 39.2005 15.4424C39.3371 15.4424 39.36 15.4528 39.3698 15.5203C39.3779 15.576 39.4089 15.6013 39.4793 15.609C39.5481 15.6167 39.5772 15.6397 39.5772 15.6863C39.5772 15.7283 39.6101 15.7607 39.6664 15.7744C39.7217 15.7879 39.7553 15.8207 39.7553 15.861C39.7553 15.9011 39.7891 15.9339 39.8445 15.9474C39.8988 15.9607 39.9336 15.994 39.9336 16.0324C39.9336 16.0671 39.964 16.1049 40.0012 16.1164C40.0386 16.128 40.079 16.1758 40.091 16.2227C40.1049 16.2761 40.1385 16.3079 40.1812 16.3079C40.2246 16.3079 40.2535 16.3362 40.2608 16.3858C40.268 16.4353 40.3007 16.4677 40.3503 16.4745C40.4164 16.4837 40.4303 16.5109 40.4395 16.6478C40.4487 16.786 40.4622 16.8117 40.5304 16.8211C40.6031 16.8313 40.6105 16.851 40.6105 17.0347C40.6105 17.2819 40.6336 17.3467 40.7213 17.3467C40.7867 17.3467 40.7889 17.4057 40.7889 19.2512C40.7889 21.0968 40.7867 21.1558 40.7213 21.1558C40.6334 21.1558 40.6105 21.2206 40.6105 21.4701C40.6105 21.6482 40.6018 21.6752 40.5432 21.6752C40.4643 21.6752 40.4324 21.7398 40.4324 21.9006C40.4324 21.9945 40.4173 22.0186 40.3523 22.0276C40.2838 22.0371 40.2706 22.0629 40.2612 22.2031C40.2513 22.3517 40.2419 22.3677 40.1633 22.3677C40.094 22.3677 40.076 22.3855 40.076 22.4543C40.076 22.5235 40.0583 22.5407 39.9871 22.5407C39.9157 22.5407 39.8979 22.5582 39.8979 22.6274C39.8979 22.6965 39.8802 22.714 39.8088 22.714C39.7376 22.714 39.7198 22.7312 39.7198 22.8004C39.7198 22.8785 39.7055 22.8871 39.5764 22.8871C39.4562 22.8871 39.4273 22.901 39.3991 22.9737C39.3784 23.0267 39.3371 23.0601 39.2931 23.0601C39.2398 23.0601 39.2208 23.083 39.2208 23.1468C39.2208 23.2276 39.209 23.2334 39.0427 23.2334C38.877 23.2334 38.8646 23.2392 38.8646 23.3188V23.4044L38.428 23.4141C38.0059 23.4235 37.9912 23.4264 37.9801 23.5016C37.9713 23.5617 37.9454 23.5795 37.8667 23.5795C37.7881 23.5795 37.7622 23.5617 37.7534 23.5016C37.7423 23.4264 37.7276 23.4235 37.3055 23.4141L36.8689 23.4044V23.3188C36.8689 23.2394 36.8563 23.2334 36.6934 23.2334C36.5381 23.2334 36.5163 23.2243 36.5063 23.1555C36.4965 23.089 36.4699 23.0759 36.3256 23.067C36.1728 23.0574 36.1563 23.0481 36.1563 22.9718C36.1563 22.9045 36.1379 22.8871 36.0671 22.8871C35.9959 22.8871 35.9782 22.8698 35.9782 22.8004C35.9782 22.7319 35.9602 22.714 35.8916 22.714C35.8287 22.714 35.8018 22.6924 35.7935 22.6361C35.7862 22.586 35.7535 22.5542 35.7019 22.547C35.644 22.5391 35.6218 22.5127 35.6218 22.4518C35.6218 22.3851 35.6032 22.3677 35.5326 22.3677C35.4614 22.3677 35.4437 22.3504 35.4437 22.281C35.4437 22.2123 35.4257 22.1946 35.3564 22.1946C35.2778 22.1946 35.2683 22.1786 35.2585 22.03C35.2491 21.8896 35.2358 21.864 35.1674 21.8545C35.0967 21.8447 35.0872 21.8233 35.0872 21.6727C35.0872 21.5138 35.0811 21.5019 34.9981 21.5019C34.9149 21.5019 34.9092 21.4905 34.9092 21.3289C34.9092 21.1672 34.9032 21.1558 34.82 21.1558H34.7308V20.7409C34.7308 20.3272 34.7306 20.326 34.6419 20.3042L34.5527 20.2826V19.3341V18.3855H34.6419C34.7308 18.3855 34.7308 18.3853 34.7308 18.0431C34.7308 17.7065 34.7325 17.7001 34.82 17.6789C34.9044 17.6583 34.9092 17.6444 34.9092 17.4153C34.9092 17.1807 34.9117 17.1736 34.9981 17.1736C35.0811 17.1736 35.0872 17.162 35.0872 17.0029C35.0872 16.8522 35.0967 16.8308 35.1674 16.8211C35.2358 16.8117 35.2491 16.786 35.2585 16.6455C35.2683 16.4972 35.2778 16.4812 35.3564 16.4812C35.4257 16.4812 35.4437 16.4633 35.4437 16.3945C35.4437 16.3254 35.4614 16.3079 35.5326 16.3079C35.603 16.3079 35.6218 16.2905 35.6218 16.2252C35.6218 16.1658 35.647 16.1363 35.7109 16.1207C35.7663 16.1072 35.7999 16.0744 35.7999 16.0341C35.7999 15.9938 35.8337 15.9609 35.889 15.9474C35.9453 15.9337 35.9782 15.9013 35.9782 15.8596C35.9782 15.8174 36.0071 15.7893 36.0584 15.7823C36.1099 15.7752 36.1426 15.7434 36.1499 15.6934C36.158 15.637 36.1852 15.6154 36.2478 15.6154C36.3164 15.6154 36.3344 15.5974 36.3344 15.5288C36.3344 15.448 36.3464 15.4424 36.5127 15.4424C36.6788 15.4424 36.6908 15.4366 36.6908 15.3557C36.6908 15.2712 36.6968 15.2691 36.9581 15.2691C37.2193 15.2691 37.2253 15.2672 37.2253 15.1827V15.096H37.8667H38.5082V15.1827ZM53.0828 15.1827C53.0828 15.2635 53.0946 15.2691 53.2609 15.2691C53.4272 15.2691 53.439 15.2749 53.439 15.3557C53.439 15.4366 53.451 15.4424 53.6173 15.4424C53.7834 15.4424 53.7954 15.448 53.7954 15.5288C53.7954 15.5982 53.8132 15.6154 53.8846 15.6154C53.9558 15.6154 53.9735 15.6327 53.9735 15.7021C53.9735 15.7713 53.9915 15.7885 54.0627 15.7885C54.1339 15.7885 54.1518 15.806 54.1518 15.8751C54.1518 15.9443 54.1696 15.9618 54.2408 15.9618C54.3122 15.9618 54.3299 15.979 54.3299 16.0482C54.3299 16.1176 54.3477 16.1348 54.4191 16.1348C54.4903 16.1348 54.508 16.1521 54.508 16.2215C54.508 16.2907 54.526 16.3079 54.5972 16.3079C54.6804 16.3079 54.6863 16.3195 54.6863 16.4812C54.6863 16.6418 54.6925 16.6542 54.7738 16.6542C54.8578 16.6542 54.8617 16.6646 54.8717 16.9052C54.8813 17.1356 54.8888 17.1572 54.9624 17.1674L55.0426 17.1784V19.2537V21.3289H54.9536C54.8706 21.3289 54.8644 21.3405 54.8644 21.4996C54.8644 21.6503 54.855 21.6717 54.7843 21.6814C54.7159 21.6908 54.7026 21.7165 54.6932 21.857C54.6834 22.0053 54.6739 22.0213 54.5953 22.0213C54.526 22.0213 54.508 22.0392 54.508 22.108C54.508 22.1771 54.4903 22.1946 54.4191 22.1946C54.3485 22.1946 54.3299 22.212 54.3299 22.2787C54.3299 22.3396 54.3077 22.366 54.2498 22.3739C54.1991 22.381 54.1655 22.4127 54.1585 22.4607C54.1516 22.5079 54.118 22.5405 54.0693 22.5474C54.0201 22.5542 53.9872 22.5866 53.9799 22.6361C53.9718 22.6924 53.9446 22.714 53.882 22.714C53.814 22.714 53.7954 22.7321 53.7954 22.7986C53.7954 22.875 53.7789 22.8844 53.6261 22.8939C53.4818 22.9028 53.4552 22.9157 53.4454 22.9822C53.4354 23.051 53.4136 23.0601 53.2583 23.0601C53.0948 23.0601 53.0828 23.0661 53.0828 23.1468V23.2334H52.1741H51.2654V23.1468C51.2654 23.0674 51.2522 23.0601 51.1074 23.0601C50.9708 23.0601 50.9481 23.0497 50.9383 22.9822C50.9285 22.9157 50.902 22.9028 50.7576 22.8939C50.6048 22.8844 50.5883 22.875 50.5883 22.7986C50.5883 22.7314 50.5699 22.714 50.4991 22.714C50.4279 22.714 50.4102 22.6965 50.4102 22.6274C50.4102 22.5582 50.3922 22.5407 50.321 22.5407C50.2498 22.5407 50.2319 22.5235 50.2319 22.4543C50.2319 22.3849 50.2141 22.3677 50.1429 22.3677C50.0715 22.3677 50.0538 22.3504 50.0538 22.281C50.0538 22.2129 50.0356 22.1946 49.9687 22.1946C49.8954 22.1946 49.8804 22.1734 49.8599 22.0404C49.8434 21.9328 49.816 21.88 49.769 21.8657C49.7322 21.8543 49.6969 21.8106 49.6907 21.7687C49.6837 21.7203 49.6503 21.6885 49.5994 21.6814C49.5323 21.6721 49.5193 21.6488 49.5193 21.5385C49.5193 21.3253 49.4801 21.194 49.41 21.1722C49.3615 21.1572 49.342 21.1109 49.3341 20.9896C49.3249 20.851 49.3114 20.825 49.243 20.8157C49.1646 20.8049 49.1628 20.7953 49.1628 20.3424C49.1628 19.8321 49.1511 19.7707 49.0523 19.7707C48.9368 19.7707 48.9495 18.7416 49.0649 18.7256C49.1423 18.7148 49.1455 18.7005 49.1551 18.2924C49.1639 17.9168 49.1725 17.868 49.231 17.8499C49.3095 17.8256 49.3412 17.6957 49.3412 17.3968C49.3412 17.1967 49.3478 17.1776 49.4213 17.1674C49.4895 17.1581 49.503 17.1321 49.5122 16.9939C49.5214 16.8572 49.5353 16.83 49.6014 16.8209C49.6676 16.8117 49.6813 16.7847 49.6905 16.6455C49.7004 16.4972 49.7098 16.4812 49.7884 16.4812C49.8577 16.4812 49.8757 16.4633 49.8757 16.3945C49.8757 16.3314 49.8947 16.3079 49.9462 16.3079C49.9916 16.3079 50.0247 16.2774 50.0388 16.2227C50.051 16.1758 50.0914 16.128 50.1286 16.1164C50.1658 16.1049 50.1964 16.0671 50.1964 16.0324C50.1964 15.994 50.231 15.9607 50.2853 15.9474C50.3416 15.9337 50.3745 15.9013 50.3745 15.8596C50.3745 15.8128 50.4036 15.79 50.4724 15.7823C50.5417 15.7744 50.5738 15.749 50.5817 15.6954C50.5885 15.6483 50.6221 15.6156 50.6706 15.609C50.72 15.6021 50.7529 15.5695 50.76 15.5203C50.7698 15.4528 50.7927 15.4424 50.9287 15.4424C51.0659 15.4424 51.0886 15.4316 51.1078 15.3572C51.1279 15.2791 51.1487 15.2714 51.3668 15.262C51.5819 15.2529 51.605 15.2446 51.6152 15.1739C51.6268 15.096 51.6268 15.096 52.3548 15.096H53.0828V15.1827ZM82.6505 22.4944C82.5966 22.522 82.5538 22.5632 82.5553 22.586C82.5574 22.6161 82.563 22.6155 82.576 22.5841C82.5861 22.5603 82.615 22.5407 82.6402 22.5407C82.6656 22.5407 82.7063 22.5175 82.7306 22.4888C82.7826 22.4281 82.7796 22.4283 82.6505 22.4944ZM79.6781 24.4365C79.6993 24.4704 79.609 24.5514 79.5808 24.524C79.5688 24.5124 79.5592 24.5211 79.5592 24.5433C79.5592 24.5988 79.6249 24.594 79.6864 24.5344C79.7463 24.4762 79.7534 24.4106 79.6997 24.4106C79.679 24.4106 79.6691 24.4224 79.6781 24.4365ZM78.9698 24.9624C78.9811 24.98 78.9544 25.0189 78.9105 25.0488C78.8665 25.0787 78.8515 25.1032 78.8768 25.1032C78.9326 25.1032 79.0247 25.0185 79.0247 24.9672C79.0247 24.9468 79.0078 24.93 78.9869 24.93C78.9661 24.93 78.9584 24.9445 78.9698 24.9624ZM77.7226 25.8279C77.7337 25.8458 77.7072 25.8846 77.6632 25.9145C77.6193 25.9445 77.6042 25.9688 77.6296 25.9688C77.6854 25.9688 77.7776 25.8842 77.7776 25.8329C77.7776 25.8123 77.7605 25.7957 77.7397 25.7957C77.719 25.7957 77.7113 25.8102 77.7226 25.8279ZM76.8883 26.0963C76.8811 26.281 77.0688 26.3855 77.1922 26.2657C77.252 26.2075 77.2589 26.142 77.2052 26.142C77.1845 26.142 77.1763 26.1558 77.187 26.1726C77.2159 26.2179 77.1263 26.2781 77.0472 26.2667C77.0094 26.2613 76.9585 26.2116 76.9341 26.1562C76.9097 26.1007 76.8892 26.0739 76.8883 26.0963Z" fill="white"/>
<path fill-rule="evenodd" clip-rule="evenodd" d="M82.5522 2.64032C82.5522 2.69684 82.6383 2.70037 82.6847 2.64573C82.7001 2.62786 82.698 2.62453 82.6802 2.63866C82.6623 2.65279 82.6264 2.64697 82.6001 2.62578C82.5635 2.59649 82.5522 2.59981 82.5522 2.64032ZM79.7164 2.95384C79.6869 3.01554 79.6886 3.03424 79.7237 3.03424C79.7489 3.03424 79.762 3.0224 79.7528 3.00785C79.7434 2.99331 79.7521 2.9717 79.772 2.95965C79.8141 2.93451 79.821 2.8726 79.7816 2.87302C79.7669 2.87322 79.7376 2.90958 79.7164 2.95384ZM75.8717 3.43688C75.8566 3.47116 75.854 3.50876 75.8662 3.52061C75.9025 3.55572 75.9316 3.50627 75.9149 3.43813C75.9002 3.37767 75.8983 3.37767 75.8717 3.43688ZM69.4896 4.30719C69.4517 4.33399 69.4289 4.36391 69.4387 4.37326C69.4485 4.38281 69.4875 4.36868 69.5251 4.34188C69.5629 4.31508 69.5858 4.28537 69.576 4.27582C69.5661 4.26626 69.5272 4.28039 69.4896 4.30719ZM66.9442 4.63877C66.9442 4.65768 66.9201 4.67326 66.8908 4.67326C66.8613 4.67326 66.8386 4.70069 66.8401 4.73393C66.8416 4.76717 66.8508 4.7759 66.8602 4.75325C66.8698 4.7304 66.9006 4.72042 66.9286 4.73102C66.9632 4.74369 66.9799 4.72624 66.9799 4.677C66.9799 4.6369 66.9718 4.60408 66.962 4.60408C66.9521 4.60408 66.9442 4.61966 66.9442 4.63877ZM65.6866 4.84653C65.6763 4.88455 65.6825 4.91572 65.7003 4.91572C65.718 4.91572 65.7326 4.90928 65.7326 4.90118C65.7326 4.89328 65.7424 4.86212 65.7542 4.83199C65.7661 4.80187 65.7599 4.77714 65.7407 4.77714C65.7212 4.77714 65.6969 4.80831 65.6866 4.84653ZM82.6056 7.47803C82.5579 7.49797 82.5519 7.50878 82.5879 7.51044C82.6197 7.5121 82.5988 7.54036 82.5361 7.58066C82.4425 7.6405 82.4395 7.64735 82.5094 7.64216C82.5524 7.63904 82.5879 7.62325 82.5879 7.60726C82.5879 7.59105 82.6039 7.58752 82.6234 7.59936C82.643 7.611 82.6591 7.59645 82.6591 7.56674C82.6591 7.53703 82.6751 7.51273 82.6948 7.51273C82.7142 7.51273 82.7303 7.49714 82.7303 7.47803C82.7303 7.43752 82.7029 7.43752 82.6056 7.47803ZM68.1719 8.89786C68.1719 9.57392 68.1766 9.85045 68.1824 9.51242C68.1884 9.17439 68.1884 8.62113 68.1824 8.2831C68.1766 7.94508 68.1719 8.2216 68.1719 8.89786ZM82.5665 10.2331C82.5665 10.3011 82.5842 10.3171 82.6574 10.3152L82.7482 10.3131L82.6657 10.2809C82.6204 10.2633 82.5926 10.2342 82.6039 10.2163C82.6152 10.1984 82.6116 10.176 82.5956 10.1662C82.5795 10.1567 82.5665 10.1868 82.5665 10.2331ZM76.9038 18.2296C76.9038 22.5529 76.9079 24.3266 76.913 22.1713C76.9181 20.016 76.9181 16.4788 76.913 14.3111C76.9079 12.1431 76.9038 13.9066 76.9038 18.2296ZM82.6591 22.4389C82.6591 22.4781 82.6751 22.5006 82.6948 22.4887C82.7142 22.4771 82.7303 22.4449 82.7303 22.4175C82.7303 22.39 82.7142 22.3676 82.6948 22.3676C82.6751 22.3676 82.6591 22.3996 82.6591 22.4389ZM78.561 25.2285C78.561 25.2746 78.5709 25.2769 78.6145 25.2416C78.644 25.2179 78.6679 25.1927 78.6679 25.1855C78.6679 25.1782 78.644 25.1724 78.6145 25.1724C78.5852 25.1724 78.561 25.1977 78.561 25.2285ZM73.5656 26.2187C73.513 26.2716 73.482 26.3151 73.497 26.3151C73.5308 26.3151 73.6969 26.1459 73.6764 26.1322C73.668 26.1268 73.6182 26.1659 73.5656 26.2187Z" fill="white"/>
<path fill-rule="evenodd" clip-rule="evenodd" d="M69.4861 10.1358C70.2079 10.141 71.3785 10.141 72.0875 10.1358C72.7965 10.1306 72.2059 10.1262 70.7753 10.1262C69.3445 10.1262 68.7645 10.1306 69.4861 10.1358ZM78.5374 10.1358C79.259 10.141 80.4296 10.141 81.1386 10.1358C81.8476 10.1306 81.2572 10.1262 79.8264 10.1262C78.3956 10.1262 77.8156 10.1306 78.5374 10.1358ZM61.2896 26.3064C61.5209 26.3124 61.8897 26.3124 62.1091 26.3064C62.3285 26.3002 62.1392 26.2954 61.6885 26.2954C61.2376 26.2954 61.0582 26.3004 61.2896 26.3064ZM68.1267 26.3064C69.0807 26.3116 70.6522 26.3116 71.6188 26.3064C72.5856 26.3014 71.805 26.297 69.8844 26.297C67.9638 26.297 67.1727 26.3014 68.1267 26.3064Z" fill="white"/>
<path fill-rule="evenodd" clip-rule="evenodd" d="M82.7476 5.08863C82.7476 6.33603 82.7521 6.84649 82.7575 6.2228C82.763 5.5991 82.763 4.57837 82.7575 3.95467C82.7521 3.33098 82.7476 3.84124 82.7476 5.08863ZM71.7259 7.67712C73.6792 7.6819 76.8863 7.6819 78.8527 7.67712C80.8191 7.67213 79.2209 7.66798 75.3009 7.66798C71.3812 7.66798 69.7723 7.67213 71.7259 7.67712ZM82.7483 16.3252C82.7483 19.5627 82.7524 20.8924 82.7575 19.2797C82.7626 17.6673 82.7626 15.0183 82.7575 13.3932C82.7524 11.7681 82.7483 13.0874 82.7483 16.3252Z" fill="white"/>
</g>
<defs>
<clipPath id="clip0">
<rect width="80" height="32" fill="white"/>
</clipPath>
</defs>
</svg>
