<svg width="97" height="31" viewBox="0 0 97 31" fill="none" xmlns="http://www.w3.org/2000/svg">
<path fill-rule="evenodd" clip-rule="evenodd" d="M4.42857 0H26.5714C29.0173 0 31 1.98274 31 4.42857V26.5714C31 29.0173 29.0173 31 26.5714 31H4.42857C1.98274 31 0 29.0173 0 26.5714V4.42857C0 1.98274 1.98274 0 4.42857 0Z" fill="#7FAF1B"/>
<path d="M20.317 19.454V22H11.52V8.833H14.484V19.454H20.317Z" fill="white"/>
<path d="M53.317 19.454V22H44.52V8.833H47.484V19.454H53.317ZM57.344 15.407C57.344 16.053 57.42 16.6357 57.572 17.155C57.7366 17.6743 57.9646 18.124 58.256 18.504C58.56 18.8713 58.9273 19.1563 59.358 19.359C59.7886 19.5617 60.2826 19.663 60.84 19.663C61.3846 19.663 61.8723 19.5617 62.303 19.359C62.7463 19.1563 63.1136 18.8713 63.405 18.504C63.709 18.124 63.937 17.6743 64.089 17.155C64.2536 16.6357 64.336 16.053 64.336 15.407C64.336 14.761 64.2536 14.1783 64.089 13.659C63.937 13.127 63.709 12.6773 63.405 12.31C63.1136 11.93 62.7463 11.6387 62.303 11.436C61.8723 11.2333 61.3846 11.132 60.84 11.132C60.2826 11.132 59.7886 11.2397 59.358 11.455C58.9273 11.6577 58.56 11.949 58.256 12.329C57.9646 12.6963 57.7366 13.146 57.572 13.678C57.42 14.1973 57.344 14.7737 57.344 15.407ZM67.395 15.407C67.395 16.5343 67.224 17.5287 66.882 18.39C66.5526 19.2387 66.0966 19.9543 65.514 20.537C64.9313 21.107 64.2346 21.5377 63.424 21.829C62.626 22.1203 61.7646 22.266 60.84 22.266C59.9406 22.266 59.092 22.1203 58.294 21.829C57.496 21.5377 56.7993 21.107 56.204 20.537C55.6086 19.9543 55.14 19.2387 54.798 18.39C54.456 17.5287 54.285 16.5343 54.285 15.407C54.285 14.2797 54.4623 13.2917 54.817 12.443C55.1716 11.5817 55.6466 10.8597 56.242 10.277C56.85 9.69433 57.5466 9.25733 58.332 8.966C59.13 8.67467 59.966 8.529 60.84 8.529C61.7393 8.529 62.588 8.67467 63.386 8.966C64.184 9.25733 64.8806 9.69433 65.476 10.277C66.0713 10.8597 66.54 11.5817 66.882 12.443C67.224 13.2917 67.395 14.2797 67.395 15.407ZM76.2877 11.113C74.907 11.113 73.9064 11.4993 73.2857 12.272C72.6777 13.032 72.3737 14.077 72.3737 15.407C72.3737 16.053 72.4497 16.642 72.6017 17.174C72.7537 17.6933 72.9817 18.143 73.2857 18.523C73.5897 18.903 73.9697 19.2007 74.4257 19.416C74.8817 19.6187 75.4137 19.72 76.0217 19.72C76.351 19.72 76.6297 19.7137 76.8577 19.701C77.0984 19.6883 77.3074 19.663 77.4847 19.625V15.046H80.4487V21.563C80.094 21.7023 79.524 21.848 78.7387 22C77.9534 22.1647 76.9844 22.247 75.8317 22.247C74.8437 22.247 73.9444 22.095 73.1337 21.791C72.3357 21.487 71.6517 21.0437 71.0817 20.461C70.5117 19.8783 70.0684 19.1627 69.7517 18.314C69.4477 17.4653 69.2957 16.4963 69.2957 15.407C69.2957 14.305 69.4667 13.3297 69.8087 12.481C70.1507 11.6323 70.6194 10.9167 71.2147 10.334C71.81 9.73867 72.5067 9.289 73.3047 8.985C74.1154 8.681 74.9767 8.529 75.8887 8.529C76.5094 8.529 77.0667 8.57333 77.5607 8.662C78.0674 8.738 78.498 8.833 78.8527 8.947C79.22 9.04833 79.5177 9.156 79.7457 9.27C79.9864 9.384 80.1574 9.47267 80.2587 9.536L79.4037 11.911C78.9984 11.6957 78.5297 11.512 77.9977 11.36C77.4784 11.1953 76.9084 11.113 76.2877 11.113ZM85.6955 15.407C85.6955 16.053 85.7715 16.6357 85.9235 17.155C86.0882 17.6743 86.3162 18.124 86.6075 18.504C86.9115 18.8713 87.2789 19.1563 87.7095 19.359C88.1402 19.5617 88.6342 19.663 89.1915 19.663C89.7362 19.663 90.2239 19.5617 90.6545 19.359C91.0979 19.1563 91.4652 18.8713 91.7565 18.504C92.0605 18.124 92.2885 17.6743 92.4405 17.155C92.6052 16.6357 92.6875 16.053 92.6875 15.407C92.6875 14.761 92.6052 14.1783 92.4405 13.659C92.2885 13.127 92.0605 12.6773 91.7565 12.31C91.4652 11.93 91.0979 11.6387 90.6545 11.436C90.2239 11.2333 89.7362 11.132 89.1915 11.132C88.6342 11.132 88.1402 11.2397 87.7095 11.455C87.2789 11.6577 86.9115 11.949 86.6075 12.329C86.3162 12.6963 86.0882 13.146 85.9235 13.678C85.7715 14.1973 85.6955 14.7737 85.6955 15.407ZM95.7465 15.407C95.7465 16.5343 95.5755 17.5287 95.2335 18.39C94.9042 19.2387 94.4482 19.9543 93.8655 20.537C93.2829 21.107 92.5862 21.5377 91.7755 21.829C90.9775 22.1203 90.1162 22.266 89.1915 22.266C88.2922 22.266 87.4435 22.1203 86.6455 21.829C85.8475 21.5377 85.1509 21.107 84.5555 20.537C83.9602 19.9543 83.4915 19.2387 83.1495 18.39C82.8075 17.5287 82.6365 16.5343 82.6365 15.407C82.6365 14.2797 82.8139 13.2917 83.1685 12.443C83.5232 11.5817 83.9982 10.8597 84.5935 10.277C85.2015 9.69433 85.8982 9.25733 86.6835 8.966C87.4815 8.67467 88.3175 8.529 89.1915 8.529C90.0909 8.529 90.9395 8.67467 91.7375 8.966C92.5355 9.25733 93.2322 9.69433 93.8275 10.277C94.4229 10.8597 94.8915 11.5817 95.2335 12.443C95.5755 13.2917 95.7465 14.2797 95.7465 15.407Z" fill="#111704"/>
</svg>
