<svg width="40" height="40" viewBox="0 0 40 40" fill="none" xmlns="http://www.w3.org/2000/svg">
<circle cx="20" cy="20" r="20" fill="white"/>
<g clip-path="url(#clip0)">
<path d="M13.5357 17.5893C13.7381 17.7322 14.3482 18.1564 15.366 18.8617C16.3839 19.567 17.1636 20.1101 17.7053 20.491C17.7648 20.5327 17.8913 20.6235 18.0847 20.7633C18.2781 20.9033 18.4389 21.0164 18.5668 21.1027C18.6948 21.189 18.8495 21.2857 19.0312 21.3928C19.2127 21.4999 19.3839 21.5804 19.5446 21.6336C19.7053 21.6874 19.8541 21.714 19.991 21.714H20H20.009C20.1459 21.714 20.2947 21.6873 20.4555 21.6336C20.6161 21.5804 20.7874 21.4998 20.9689 21.3928C21.1504 21.2856 21.3051 21.1889 21.4331 21.1027C21.5611 21.0164 21.7217 20.9033 21.9152 20.7633C22.1086 20.6233 22.2352 20.5327 22.2947 20.491C22.8423 20.1101 24.2352 19.1428 26.4733 17.5892C26.9078 17.2857 27.2708 16.9196 27.5624 16.491C27.8542 16.0626 28 15.6131 28 15.143C28 14.75 27.8586 14.4137 27.5758 14.134C27.293 13.8542 26.9582 13.7144 26.5714 13.7144H13.4285C12.9702 13.7144 12.6175 13.8691 12.3705 14.1786C12.1235 14.4881 12 14.875 12 15.3393C12 15.7143 12.1637 16.1206 12.4911 16.5581C12.8184 16.9956 13.1667 17.3394 13.5357 17.5893Z" fill="#262E3B"/>
<path d="M27.107 18.5446C25.1548 19.8659 23.6725 20.8928 22.6607 21.625C22.3215 21.8749 22.0462 22.07 21.8349 22.2098C21.6235 22.3496 21.3424 22.4925 20.9911 22.6383C20.64 22.7842 20.3127 22.857 20.0091 22.857H20H19.991C19.6875 22.857 19.3601 22.7842 19.0089 22.6383C18.6578 22.4925 18.3765 22.3496 18.1652 22.2098C17.9539 22.07 17.6786 21.8749 17.3394 21.625C16.5357 21.0357 15.0566 20.0088 12.9019 18.5446C12.5625 18.3185 12.2619 18.0594 12 17.7678V24.8569C12 25.25 12.1398 25.5862 12.4196 25.8659C12.6994 26.1458 13.0357 26.2857 13.4286 26.2857H26.5715C26.9643 26.2857 27.3006 26.1458 27.5804 25.8659C27.8603 25.5861 28 25.25 28 24.8569V17.7678C27.744 18.0534 27.4465 18.3125 27.107 18.5446Z" fill="#262E3B"/>
</g>
<defs>
<clipPath id="clip0">
<rect width="16" height="16" fill="white" transform="translate(12 12)"/>
</clipPath>
</defs>
</svg>
