<svg width="88" height="88" viewBox="0 0 88 88" fill="none" xmlns="http://www.w3.org/2000/svg">
<g clip-path="url(#clip0)">
<path d="M83.4295 34.0777V79.8566C83.4295 83.643 80.3616 86.7109 76.5769 86.7109H20.2706C17.0359 86.7109 14.3255 84.4697 13.6053 81.455L13.5778 77.5362L13.418 54.1991V8.14344C13.418 4.35703 16.4859 1.28906 20.2706 1.28906H50.6409C53.3703 1.28906 62.2098 8.82578 70.0233 16.763C77.1526 24.0075 83.4295 31.5855 83.4295 34.0777Z" fill="white"/>
<path d="M83.4296 34.0776V50.8475C83.4296 50.8286 83.4279 50.8097 83.4279 50.789C82.9123 30.2122 66.151 29.26 60.6699 23.7789L70.0234 16.7629C77.1527 24.0075 83.4296 31.5854 83.4296 34.0776Z" fill="white"/>
<path d="M50.64 1.28906H33.8701C33.889 1.28906 33.9079 1.29078 33.9286 1.29078C54.5054 1.80641 55.4576 18.5677 60.9387 24.0487L67.9546 14.6953C60.7101 7.56594 53.1321 1.28906 50.64 1.28906Z" fill="white"/>
<path d="M83.4295 34.0787V36.9779C83.4295 30.8739 78.4799 25.9242 72.3759 25.9242H65.6482C61.8637 25.9242 58.7943 22.8549 58.7943 19.0704V12.3427C58.7943 6.23872 53.8447 1.28906 47.7407 1.28906H50.6399C55.8603 1.28906 60.8685 3.36325 64.5599 7.05461L77.664 20.1587C81.3553 23.8499 83.4295 28.8582 83.4295 34.0787Z" fill="white"/>
<path d="M17.1062 15.1606L14.2115 9.65592C13.4798 8.26459 11.7559 7.72885 10.3645 8.46053L6.095 10.7057C4.70178 11.4384 4.16794 13.1613 4.89961 14.5526L7.79433 20.0574" fill="#008751"/>
<path d="M9.59558 8.86481C8.20236 9.59751 7.66852 11.3204 8.40019 12.7117L11.2949 18.2165L7.79433 20.0573L4.89961 14.5527C4.16794 13.1613 4.70178 11.4385 6.095 10.7058L9.59558 8.86481Z" fill="#008751"/>
<path d="M34.6729 39.501C44.569 58.3198 48.8361 75.5528 44.2017 77.9898C39.5672 80.4268 27.7874 67.1447 17.8914 48.3257C12.8737 38.7838 9.30278 29.6481 7.60637 22.6454C7.14523 20.742 8.04311 18.7705 9.77647 17.859L14.1706 15.5483C15.904 14.6369 18.0371 15.0145 19.3441 16.473C24.1521 21.8393 29.655 29.959 34.6729 39.501Z" fill="#008751"/>
<path d="M44.2019 77.9898C39.5674 80.4268 27.7876 67.1447 17.8916 48.3257C12.8737 38.7836 9.30299 29.6488 7.60538 22.6452C7.14527 20.7424 8.04383 18.7704 9.77651 17.8592L11.3688 17.0218C10.8927 17.2722 11.0948 18.6654 11.8631 20.4062C14.6866 26.8176 18.9579 35.5843 23.9756 45.1263C33.8718 63.945 42.9276 78.66 44.2019 77.9898Z" fill="#008751"/>
<path d="M84.7184 34.0794C84.7184 29.623 83.2601 25.1979 80.611 21.6133C80.2184 21.0822 79.486 20.8919 78.9125 21.2193C78.227 21.6107 78.0557 22.4967 78.5117 23.1107C79.6988 24.7089 80.6152 26.4988 81.23 28.3869C78.9855 26.0741 75.8455 24.6348 72.3759 24.6348H65.647C62.5742 24.6348 60.0834 22.1439 60.0834 19.0712V12.3423C60.0834 8.8593 58.633 5.70848 56.3047 3.46225C59.0444 4.345 61.554 5.87159 63.6476 7.9652L74.7129 19.0305C75.2163 19.5339 76.0325 19.5339 76.5358 19.0305C77.0392 18.5271 77.0392 17.711 76.5358 17.2076L65.4705 6.1423C61.5098 2.18144 56.2423 0 50.639 0H20.2687C16.2085 0 12.8334 2.98822 12.2252 6.88136C11.4069 6.77342 10.549 6.90697 9.76459 7.31947L5.57118 9.52462C4.62261 10.0234 3.86928 10.8463 3.51607 11.8582C3.13331 12.9544 3.22148 14.1309 3.75859 15.1527L6.39636 20.169C6.15246 21.0547 6.12582 22.0081 6.35373 22.9498C7.52953 27.8035 9.51761 33.4323 12.1268 39.3592V54.208L12.3083 80.6176C12.3149 81.5605 12.5067 82.4974 12.9087 83.3503C14.2308 86.1535 17.06 88 20.2687 88H76.575C81.0644 88 84.7167 84.3468 84.7167 79.8566L84.7184 34.0794ZM5.93161 12.7643C6.05518 12.3664 6.32623 12.0405 6.6949 11.8467L10.9644 9.60145C11.7257 9.20116 12.6701 9.49489 13.0704 10.2558L14.9832 13.8932C14.5004 13.9984 14.025 14.168 13.5702 14.4069L9.17798 16.7183C8.7232 16.9572 8.31397 17.2523 7.95354 17.5902L6.04057 13.9526C5.84687 13.5841 5.8082 13.1622 5.93161 12.7643ZM76.5733 85.4219H20.2687C20.1893 85.4219 20.1104 85.4202 20.0317 85.4169C17.1485 85.2968 14.9021 82.8589 14.8823 79.9733L14.7051 54.1991V44.8974C15.3605 46.2345 16.0425 47.5788 16.7504 48.9254C17.0657 49.5254 17.3939 50.1406 17.7535 50.804C18.0899 51.4247 18.8623 51.7065 19.4925 51.3886C20.1443 51.0596 20.3913 50.2602 20.0458 49.6229C19.6816 48.9512 19.3502 48.3309 19.0326 47.7261C14.2204 38.5734 10.6076 29.5587 8.8595 22.3431C8.53792 21.0133 9.16182 19.6388 10.3777 19.0003L14.7701 16.6891C15.9858 16.0505 17.4722 16.3152 18.3839 17.3327C23.3386 22.8628 28.7185 30.9485 33.5327 40.1003C35.5317 43.9019 37.3249 47.6852 38.8646 51.3282L25.2602 58.4822C24.4788 57.2553 23.683 55.9622 22.8744 54.5994C22.5138 53.9918 21.7326 53.7376 21.1142 54.0791C20.4745 54.4325 20.2577 55.2415 20.6278 55.8654C25.0359 63.2995 29.7421 69.7206 33.8795 73.9454C37.5447 77.6884 40.5905 79.5711 42.9686 79.5711C43.1468 79.5711 43.3211 79.5596 43.4918 79.5384L43.9021 80.4361C44.1186 80.91 44.5863 81.1896 45.0753 81.1896C45.2906 81.1896 45.5103 81.1353 45.7143 81.0195C46.3014 80.6859 46.5085 79.9367 46.2279 79.3224L45.796 78.3772C47.7758 76.2963 47.893 71.6672 46.1382 64.5786C44.3142 57.211 40.6479 48.0915 35.8145 38.8998C30.9045 29.5658 25.3961 21.2953 20.304 15.6117C19.673 14.9078 18.8951 14.3971 18.0509 14.0934C21.0233 12.4181 23.8124 12.7674 26.3545 15.1405C29.5369 18.1125 32.8912 26.2744 35.8507 33.4752C39.4261 42.1745 41.7462 47.5738 44.2865 48.9053C44.4777 49.0055 44.6822 49.053 44.884 49.053C45.583 49.053 46.2468 48.4825 46.1827 47.5575C46.1545 47.1512 45.8778 46.8165 45.5124 46.6366C43.6755 45.732 40.7844 38.6977 38.2353 32.4952C35.0261 24.6868 31.7077 16.6124 28.114 13.2562C23.8064 9.23484 19.5364 10.3242 16.814 11.8351L15.3522 9.05558C15.1744 8.71716 14.955 8.41448 14.705 8.14859V8.14344C14.705 5.0698 17.1966 2.57812 20.2703 2.57812H47.7411C53.1336 2.57812 57.5053 6.94977 57.5053 12.3423V19.0695C57.5053 23.567 61.1513 27.213 65.6487 27.213H72.3759C77.7367 27.213 82.1008 31.5557 82.1384 36.9077V79.8566C82.1386 82.9302 79.6469 85.4219 76.5733 85.4219ZM43.6023 76.8491C41.5838 77.9108 35.0914 73.299 26.6728 60.6523L39.8484 53.7237C41.4864 57.8332 42.7746 61.721 43.6355 65.1985C45.5163 72.7958 44.7931 76.2228 43.6023 76.8491Z" fill="#111704"/>
</g>
<defs>
<clipPath id="clip0">
<rect width="88" height="88" fill="white"/>
</clipPath>
</defs>
</svg>
