<svg width="88" height="88" viewBox="0 0 88 88" fill="none" xmlns="http://www.w3.org/2000/svg">
<path d="M86.7108 34.0777V79.8566C86.7108 83.643 83.6428 86.7109 79.8581 86.7109H23.5519C20.3172 86.7109 17.6067 84.4697 16.8866 81.455L16.8591 77.5362L16.6992 54.1991V8.14344C16.6992 4.35703 19.7672 1.28906 23.5519 1.28906H53.9222C56.6516 1.28906 65.4911 8.82578 73.3045 16.763C80.4339 24.0075 86.7108 31.5855 86.7108 34.0777Z" fill="white"/>
<path d="M86.7109 34.0777V50.8475C86.7109 50.8286 86.7092 50.8097 86.7092 50.7891C86.1935 30.2122 69.4323 29.26 63.9512 23.7789L73.3046 16.763C80.434 24.0075 86.7109 31.5855 86.7109 34.0777Z" fill="white"/>
<path d="M53.9212 1.28906H37.1514C37.1703 1.28906 37.1892 1.29078 37.2098 1.29078C57.7867 1.80641 58.7389 18.5677 64.22 24.0487L71.2359 14.6953C63.9914 7.56594 56.4134 1.28906 53.9212 1.28906Z" fill="white"/>
<path d="M86.7108 34.0787V36.9779C86.7108 30.8739 81.7611 25.9242 75.6572 25.9242H68.9295C65.1449 25.9242 62.0756 22.8549 62.0756 19.0704V12.3427C62.0756 6.23872 57.1259 1.28906 51.022 1.28906H53.9212C59.1415 1.28906 64.1498 3.36325 67.8412 7.05461L80.9452 20.1587C84.6364 23.8499 86.7108 28.8582 86.7108 34.0787Z" fill="white"/>
<path d="M24.3727 86.7109C32.544 86.7109 39.1682 80.0868 39.1682 71.9154C39.1682 63.7441 32.544 57.1199 24.3727 57.1199C16.2013 57.1199 9.57715 63.7441 9.57715 71.9154C9.57715 80.0868 16.2013 86.7109 24.3727 86.7109Z" fill="white"/>
<path d="M16.0846 86.7109C24.2559 86.7109 30.8801 80.0868 30.8801 71.9154C30.8801 63.7441 24.2559 57.1199 16.0846 57.1199C7.91324 57.1199 1.28906 63.7441 1.28906 71.9154C1.28906 80.0868 7.91324 86.7109 16.0846 86.7109Z" fill="white"/>
<path d="M88 34.0794C88 28.4754 85.818 23.2079 81.8562 19.2478L68.7524 6.1423C64.7915 2.18144 59.5241 0 53.9206 0H23.5503C19.0609 0 15.4086 3.6532 15.4086 8.14344V54.2082L15.4201 55.8442C13.9569 55.9035 12.5194 56.1588 11.1375 56.6062C10.4601 56.8255 10.0889 57.5522 10.3082 58.2295C10.5273 58.9067 11.254 59.2781 11.9316 59.0588C13.265 58.6271 14.6621 58.4083 16.0841 58.4083C23.5321 58.4083 29.5917 64.4677 29.5917 71.9159C29.5917 79.3631 23.5323 85.4219 16.0841 85.4219C8.63689 85.4219 2.57812 79.3631 2.57812 71.9159C2.57812 67.951 4.31114 64.2008 7.3327 61.6275C7.8748 61.1658 7.93994 60.3524 7.47828 59.8103C7.01662 59.268 6.20297 59.203 5.66105 59.6647C2.06336 62.7287 0 67.1942 0 71.9159C0 80.7847 7.21531 88 16.0841 88C17.517 88 18.9064 87.8106 20.2295 87.4576C20.2295 87.4576 21.6855 88 23.5512 88C25.4169 88 79.8574 88 79.8574 88C84.3468 88 87.9991 84.347 87.9991 79.8566L88 34.0794ZM32.1698 71.9159C32.1698 66.2676 29.243 61.2905 24.8267 58.4198C32.0645 58.6601 37.8795 64.6198 37.8795 71.9159C37.8795 79.211 32.0647 85.1699 24.827 85.4104C29.2432 82.54 32.1698 77.5636 32.1698 71.9159ZM79.8574 85.4219H33.0983C37.5238 82.5533 40.4578 77.571 40.4578 71.9159C40.4578 63.0463 33.2425 55.8302 24.3738 55.8302C22.9651 55.8302 21.5724 56.0139 20.2271 56.3721C19.5032 56.1789 18.7593 56.0352 17.9993 55.9446L17.9869 54.1991V8.14344C17.9869 5.07478 20.4827 2.57812 23.5505 2.57812H51.023C56.407 2.57812 60.7872 6.95836 60.7872 12.3423V19.0695C60.7872 22.2638 62.6682 25.1773 65.5796 26.492C66.2293 26.7855 66.9922 26.4964 67.2849 25.8478C67.578 25.1989 67.2896 24.4353 66.6407 24.1424C64.6511 23.2439 63.3653 21.2527 63.3653 19.0695V12.3423C63.3653 8.87477 61.9276 5.73616 59.6173 3.49198C62.3533 4.38659 64.878 5.91387 66.9293 7.9652L80.0334 21.0708C82.1275 23.1641 83.6545 25.6735 84.5376 28.4132C82.2915 26.085 79.1409 24.6347 75.6578 24.6347H71.813C71.1009 24.6347 70.5239 25.2118 70.5239 25.9237C70.5239 26.6356 71.1009 27.2128 71.813 27.2128H75.6578C81.0308 27.2128 85.4031 31.5752 85.4212 36.944V79.8566C85.421 82.9254 82.9252 85.4219 79.8574 85.4219Z" fill="#111704"/>
<path d="M7.76335 73.7502C8.06997 75.2166 8.49347 76.0415 9.18699 76.8613L8.59075 77.4575C8.08733 77.961 8.08733 78.7772 8.59075 79.2804C8.84238 79.5321 9.17238 79.6581 9.50221 79.6581C9.83203 79.6581 10.162 79.5322 10.4137 79.2804L11.0967 78.5974C11.942 79.1053 12.8591 79.3298 13.751 79.3298C14.8987 79.3298 16.0044 78.9601 16.859 78.3513C18.8364 76.9431 19.4235 74.5876 18.355 72.3503C18.2474 72.1251 18.1389 71.8945 18.0324 71.6617L21.0323 68.6618C21.2359 69.0977 21.2793 69.4492 21.286 69.5231C21.3502 70.2323 21.9781 70.7554 22.686 70.6905C23.395 70.6262 23.9179 69.9994 23.8534 69.2904C23.8259 68.9869 23.6771 67.8984 22.9184 66.7755L23.4495 66.2444C23.9529 65.741 23.9529 64.9248 23.4495 64.4215C22.9461 63.9181 22.1299 63.9181 21.6266 64.4215L21.0318 65.0164C20.9539 64.9703 20.874 64.9251 20.7918 64.8809C19.3647 64.1145 17.6095 64.2319 16.2108 65.187C14.928 66.0631 14.2338 67.4573 14.3991 68.826C14.478 69.4789 14.6615 70.1883 14.9867 71.0612L11.0211 75.0269C10.6462 74.5346 10.4632 74.0647 10.287 73.2222C10.1414 72.5252 9.45804 72.0791 8.76143 72.2241C8.06447 72.3704 7.61777 73.0534 7.76335 73.7502ZM15.3637 76.2515C14.7568 76.6836 13.8838 76.9053 13.0368 76.6578L16.0921 73.6026C16.7156 75.0764 15.7982 75.9419 15.3637 76.2515ZM16.9585 68.5169C16.9098 68.1139 17.1869 67.6428 17.6645 67.3166C18.0217 67.0727 18.5387 66.8926 19.0677 66.9806L17.046 69.0023C17.0076 68.8339 16.9772 68.6709 16.9585 68.5169Z" fill="#008751"/>
<path d="M70.2578 63.7591C69.8837 63.6267 69.5006 63.488 69.1188 63.3435V57.2478C70.0794 57.4777 70.6514 57.9636 70.7011 58.0069C71.2248 58.4813 72.0342 58.4456 72.5137 57.9253C72.9965 57.4019 72.9635 56.5864 72.4401 56.1038C72.3668 56.0362 71.1353 54.9264 69.1188 54.6239V53.379C69.1188 52.6671 68.5419 52.09 67.8298 52.09C67.1177 52.09 66.5407 52.6671 66.5407 53.379V54.7229C66.3494 54.765 66.1552 54.8135 65.9569 54.8733C64.1128 55.4288 62.7351 57.007 62.3609 58.9918C62.0199 60.8016 62.5998 62.5468 63.8741 63.5463C64.5494 64.0758 65.3897 64.5611 66.5409 65.0734V72.8028C65.5452 72.7294 64.8551 72.4862 63.7249 71.7468C63.129 71.357 62.3305 71.5242 61.9405 72.1198C61.5507 72.7155 61.7177 73.5145 62.3136 73.9042C63.9616 74.9822 65.0873 75.3038 66.5409 75.3854V76.7795C66.5409 77.4914 67.1179 78.0686 67.8299 78.0686C68.542 78.0686 69.119 77.4914 69.119 76.7795V75.283C72.0111 74.7156 73.7005 72.3308 74.0748 70.1032C74.5563 67.239 73.0579 64.7489 70.2578 63.7591ZM65.4653 61.5177C64.9512 61.1144 64.7324 60.3295 64.8947 59.4693C65.0399 58.6984 65.5488 57.772 66.5409 57.3975V62.2052C66.136 61.9855 65.7699 61.7566 65.4653 61.5177ZM71.5323 69.6757C71.334 70.8558 70.5121 72.1067 69.1188 72.6052V66.0897C69.2118 66.1231 69.3029 66.1561 69.3986 66.1899C71.7807 67.0318 71.6341 69.0709 71.5323 69.6757Z" fill="#008751"/>
<path d="M45.4874 51.6407H28.2705C27.5586 51.6407 26.9814 52.2179 26.9814 52.9298C26.9814 53.6417 27.5586 54.2188 28.2705 54.2188H45.4874C46.1995 54.2188 46.7765 53.6417 46.7765 52.9298C46.7765 52.2179 46.1995 51.6407 45.4874 51.6407Z" fill="black"/>
<path d="M75.1389 44.7838H28.2705C27.5586 44.7838 26.9814 45.3609 26.9814 46.0728C26.9814 46.7847 27.5586 47.3619 28.2705 47.3619H75.1387C75.8508 47.3619 76.4278 46.7847 76.4278 46.0728C76.4278 45.3609 75.8508 44.7838 75.1389 44.7838Z" fill="black"/>
<path d="M75.1389 37.9268H28.2705C27.5586 37.9268 26.9814 38.504 26.9814 39.2159C26.9814 39.9278 27.5586 40.5049 28.2705 40.5049H75.1387C75.8508 40.5049 76.4278 39.9278 76.4278 39.2159C76.4278 38.504 75.8508 37.9268 75.1389 37.9268Z" fill="black"/>
<path d="M75.1389 31.0699H28.2705C27.5586 31.0699 26.9814 31.647 26.9814 32.3589C26.9814 33.0708 27.5586 33.648 28.2705 33.648H75.1387C75.8508 33.648 76.4278 33.0708 76.4278 32.3589C76.4278 31.647 75.8508 31.0699 75.1389 31.0699Z" fill="black"/>
<path d="M28.2705 20.5985H45.4874C46.1995 20.5985 46.7765 20.0214 46.7765 19.3094C46.7765 18.5975 46.1995 18.0204 45.4874 18.0204H28.2705C27.5586 18.0204 26.9814 18.5975 26.9814 19.3094C26.9814 20.0214 27.5586 20.5985 28.2705 20.5985Z" fill="#008751"/>
</svg>
