<svg width="24" height="24" viewBox="0 0 24 24" fill="none" xmlns="http://www.w3.org/2000/svg">
<path fill-rule="evenodd" clip-rule="evenodd" d="M14.6588 13.9519L14.38 13.683C15.3557 12.548 15.9431 11.0745 15.9431 9.47155C15.9431 5.89726 13.0458 3 9.47155 3C5.89726 3 3 5.89726 3 9.47155C3 13.0458 5.89726 15.9431 9.47155 15.9431C11.0745 15.9431 12.548 15.3557 13.683 14.38L13.9519 14.6588V15.4453L18.2229 19.7078C18.6135 20.0976 19.2461 20.0973 19.6364 19.7071L19.7071 19.6364C20.0973 19.2461 20.0976 18.6135 19.7078 18.2229L15.4453 13.9519H14.6588ZM4.99129 9.47178C4.99129 6.99267 6.99249 4.99147 9.47159 4.99147C11.9507 4.99147 13.9519 6.99267 13.9519 9.47178C13.9519 11.9509 11.9507 13.9521 9.47159 13.9521C6.99249 13.9521 4.99129 11.9509 4.99129 9.47178Z" fill="#C2D1D9"/>
<mask id="mask0" mask-type="alpha" maskUnits="userSpaceOnUse" x="3" y="3" width="17" height="17">
<path fill-rule="evenodd" clip-rule="evenodd" d="M14.6588 13.9519L14.38 13.683C15.3557 12.548 15.9431 11.0745 15.9431 9.47155C15.9431 5.89726 13.0458 3 9.47155 3C5.89726 3 3 5.89726 3 9.47155C3 13.0458 5.89726 15.9431 9.47155 15.9431C11.0745 15.9431 12.548 15.3557 13.683 14.38L13.9519 14.6588V15.4453L18.2229 19.7078C18.6135 20.0976 19.2461 20.0973 19.6364 19.7071L19.7071 19.6364C20.0973 19.2461 20.0976 18.6135 19.7078 18.2229L15.4453 13.9519H14.6588ZM4.99129 9.47178C4.99129 6.99267 6.99249 4.99147 9.47159 4.99147C11.9507 4.99147 13.9519 6.99267 13.9519 9.47178C13.9519 11.9509 11.9507 13.9521 9.47159 13.9521C6.99249 13.9521 4.99129 11.9509 4.99129 9.47178Z" fill="white"/>
</mask>
<g mask="url(#mask0)">
<rect width="24" height="24" fill="#008751"/>
</g>
</svg>
