<svg width="52" height="52" viewBox="0 0 52 52" fill="none" xmlns="http://www.w3.org/2000/svg">
<circle cx="26" cy="26" r="25" stroke="white" stroke-width="2"/>
<g clip-path="url(#clip0)">
<path d="M38 18.5585C37.1075 18.95 36.1565 19.2095 35.165 19.3355C36.185 18.7265 36.9635 17.7695 37.3295 16.616C36.3785 17.183 35.3285 17.5835 34.2095 17.807C33.3065 16.8455 32.0195 16.25 30.6155 16.25C27.8915 16.25 25.6985 18.461 25.6985 21.1715C25.6985 21.5615 25.7315 21.9365 25.8125 22.2935C21.722 22.094 18.1025 20.1335 15.671 17.147C15.2465 17.8835 14.9975 18.7265 14.9975 19.634C14.9975 21.338 15.875 22.8485 17.183 23.723C16.3925 23.708 15.617 23.4785 14.96 23.117C14.96 23.132 14.96 23.1515 14.96 23.171C14.96 25.562 16.6655 27.548 18.902 28.0055C18.5015 28.115 18.065 28.1675 17.612 28.1675C17.297 28.1675 16.979 28.1495 16.6805 28.0835C17.318 30.032 19.127 31.4645 21.278 31.511C19.604 32.8205 17.4785 33.6095 15.1775 33.6095C14.774 33.6095 14.387 33.5915 14 33.542C16.1795 34.9475 18.7625 35.75 21.548 35.75C30.602 35.75 35.552 28.25 35.552 21.749C35.552 21.5315 35.5445 21.3215 35.534 21.113C36.5105 20.42 37.331 19.5545 38 18.5585Z" fill="white"/>
</g>
<defs>
<clipPath id="clip0">
<rect width="24" height="24" fill="white" transform="translate(14 14)"/>
</clipPath>
</defs>
</svg>
